<svg width="300" height="118" viewBox="0 0 300 118" fill="none" xmlns="http://www.w3.org/2000/svg">
<path fill-rule="evenodd" clip-rule="evenodd" d="M42.1081 32.9728C35.2379 35.8586 30.3 42.4942 30.3 49.8819V64.6582C30.3 72.0575 35.2447 78.8234 42.1489 81.6591C46.3348 83.3783 51.1776 84.6661 63.2298 84.6661C75.2244 84.6661 80.0694 83.3871 84.2198 81.6791C84.402 81.6042 84.6093 81.6151 84.7802 81.7125L94.243 87.1072C95.0466 87.5653 96.05 86.9912 96.05 86.0732V49.8819C96.05 42.5415 91.1912 35.8019 84.3614 32.9428C80.1785 31.1918 75.3241 29.8864 63.2298 29.8864C51.1006 29.8864 46.3033 31.2106 42.1081 32.9728ZM44.1075 53.0998C44.1075 51.0031 45.8247 49.3033 47.943 49.3033H50.025C52.1433 49.3033 53.8605 51.0031 53.8605 53.0998V61.4526C53.8605 63.5494 52.1433 65.2491 50.025 65.2491H47.943C45.8247 65.2491 44.1075 63.5494 44.1075 61.4526V53.0998ZM76.3251 49.3033C74.2068 49.3033 72.4896 51.0031 72.4896 53.0998V61.4526C72.4896 63.5494 74.2068 65.2491 76.3251 65.2491H78.4071C80.5254 65.2491 82.2425 63.5494 82.2425 61.4526V53.0998C82.2425 51.0031 80.5254 49.3033 78.4071 49.3033H76.3251Z" fill="url(#paint0_linear_203_13343)"/>
<path fill-rule="evenodd" clip-rule="evenodd" d="M42.1081 32.9728C35.2379 35.8586 30.3 42.4942 30.3 49.8819V64.6582C30.3 72.0575 35.2447 78.8234 42.1489 81.6591C46.3348 83.3783 51.1776 84.6661 63.2298 84.6661C75.2244 84.6661 80.0694 83.3871 84.2198 81.6791C84.402 81.6042 84.6093 81.6151 84.7802 81.7125L94.243 87.1072C95.0466 87.5653 96.05 86.9912 96.05 86.0732V49.8819C96.05 42.5415 91.1912 35.8019 84.3614 32.9428C80.1785 31.1918 75.3241 29.8864 63.2298 29.8864C51.1006 29.8864 46.3033 31.2106 42.1081 32.9728ZM44.1075 53.0998C44.1075 51.0031 45.8247 49.3033 47.943 49.3033H50.025C52.1433 49.3033 53.8605 51.0031 53.8605 53.0998V61.4526C53.8605 63.5494 52.1433 65.2491 50.025 65.2491H47.943C45.8247 65.2491 44.1075 63.5494 44.1075 61.4526V53.0998ZM76.3251 49.3033C74.2068 49.3033 72.4896 51.0031 72.4896 53.0998V61.4526C72.4896 63.5494 74.2068 65.2491 76.3251 65.2491H78.4071C80.5254 65.2491 82.2425 63.5494 82.2425 61.4526V53.0998C82.2425 51.0031 80.5254 49.3033 78.4071 49.3033H76.3251Z" fill="black"/>
<path d="M121.778 51.4045C121.329 51.4045 120.927 51.6801 120.769 52.0959L110.443 79.3669C110.411 79.4493 110.396 79.5366 110.396 79.6246C110.396 80.0309 110.729 80.3602 111.14 80.3602H117.694C118.161 80.3602 118.574 80.063 118.718 79.6241L119.894 76.04C119.923 75.9522 120.006 75.8928 120.099 75.8928H129.246C129.341 75.8928 129.424 75.9539 129.452 76.0434L130.554 79.607C130.693 80.0545 131.111 80.3602 131.584 80.3602H138.208C138.619 80.3602 138.952 80.0311 138.952 79.625C138.952 79.5367 138.936 79.4492 138.905 79.3666L128.537 52.0946C128.379 51.6795 127.978 51.4045 127.529 51.4045H121.778ZM121.785 69.7293L124.674 61.539L127.563 69.7293H121.785Z" fill="url(#paint1_linear_203_13343)"/>
<path d="M121.778 51.4045C121.329 51.4045 120.927 51.6801 120.769 52.0959L110.443 79.3669C110.411 79.4493 110.396 79.5366 110.396 79.6246C110.396 80.0309 110.729 80.3602 111.14 80.3602H117.694C118.161 80.3602 118.574 80.063 118.718 79.6241L119.894 76.04C119.923 75.9522 120.006 75.8928 120.099 75.8928H129.246C129.341 75.8928 129.424 75.9539 129.452 76.0434L130.554 79.607C130.693 80.0545 131.111 80.3602 131.584 80.3602H138.208C138.619 80.3602 138.952 80.0311 138.952 79.625C138.952 79.5367 138.936 79.4492 138.905 79.3666L128.537 52.0946C128.379 51.6795 127.978 51.4045 127.529 51.4045H121.778ZM121.785 69.7293L124.674 61.539L127.563 69.7293H121.785Z" fill="black"/>
<path d="M159.607 68.8193C160.989 67.7024 161.743 66.0478 161.743 64.2691C161.743 60.6704 158.979 58.4366 154.708 58.4366H143.014C142.419 58.4366 141.937 58.9131 141.937 59.5008V79.296C141.937 79.8837 142.419 80.3602 143.014 80.3602H154.75C159.565 80.3602 162.538 78.0024 162.538 74.114C162.538 71.9631 161.533 69.9775 159.607 68.8193ZM152.95 63.4418C154.164 63.4418 154.792 64.0209 154.792 65.1378C154.792 66.2547 154.164 66.8338 152.95 66.8338H148.972V63.4418H152.95ZM148.972 75.2309V71.5908H153.536C154.708 71.5908 155.42 72.294 155.42 73.4108C155.42 74.5277 154.708 75.2309 153.536 75.2309H148.972Z" fill="url(#paint2_linear_203_13343)"/>
<path d="M159.607 68.8193C160.989 67.7024 161.743 66.0478 161.743 64.2691C161.743 60.6704 158.979 58.4366 154.708 58.4366H143.014C142.419 58.4366 141.937 58.9131 141.937 59.5008V79.296C141.937 79.8837 142.419 80.3602 143.014 80.3602H154.75C159.565 80.3602 162.538 78.0024 162.538 74.114C162.538 71.9631 161.533 69.9775 159.607 68.8193ZM152.95 63.4418C154.164 63.4418 154.792 64.0209 154.792 65.1378C154.792 66.2547 154.164 66.8338 152.95 66.8338H148.972V63.4418H152.95ZM148.972 75.2309V71.5908H153.536C154.708 71.5908 155.42 72.294 155.42 73.4108C155.42 74.5277 154.708 75.2309 153.536 75.2309H148.972Z" fill="black"/>
<path d="M182.641 60.4222C180.841 58.8916 178.454 57.9816 175.774 57.9816C169.409 57.9816 164.762 62.6145 164.762 69.3984C164.762 75.8928 169.158 80.8152 175.774 80.8152C178.412 80.8152 180.757 79.9465 182.599 78.416L182.782 79.4746C182.87 79.986 183.318 80.3602 183.843 80.3602H188.096C188.691 80.3602 189.173 79.8837 189.173 79.296V59.5008C189.173 58.9131 188.691 58.4366 188.096 58.4366H183.866C183.331 58.4366 182.877 58.8244 182.8 59.3473L182.641 60.4222ZM176.988 74.1968C174.183 74.1968 172.173 72.2112 172.173 69.3984C172.173 66.5856 174.183 64.6 176.988 64.6C179.794 64.6 181.804 66.5856 181.804 69.3984C181.804 72.2112 179.794 74.1968 176.988 74.1968Z" fill="url(#paint3_linear_203_13343)"/>
<path d="M182.641 60.4222C180.841 58.8916 178.454 57.9816 175.774 57.9816C169.409 57.9816 164.762 62.6145 164.762 69.3984C164.762 75.8928 169.158 80.8152 175.774 80.8152C178.412 80.8152 180.757 79.9465 182.599 78.416L182.782 79.4746C182.87 79.986 183.318 80.3602 183.843 80.3602H188.096C188.691 80.3602 189.173 79.8837 189.173 79.296V59.5008C189.173 58.9131 188.691 58.4366 188.096 58.4366H183.866C183.331 58.4366 182.877 58.8244 182.8 59.3473L182.641 60.4222ZM176.988 74.1968C174.183 74.1968 172.173 72.2112 172.173 69.3984C172.173 66.5856 174.183 64.6 176.988 64.6C179.794 64.6 181.804 66.5856 181.804 69.3984C181.804 72.2112 179.794 74.1968 176.988 74.1968Z" fill="black"/>
<path d="M193.465 58.4366C192.87 58.4366 192.388 58.9131 192.388 59.5008V64.0322C192.388 64.62 192.87 65.0964 193.465 65.0964H199.464V79.296C199.464 79.8837 199.947 80.3602 200.542 80.3602H205.799C206.393 80.3602 206.876 79.8837 206.876 79.296V65.0964H212.875C213.47 65.0964 213.952 64.62 213.952 64.0322V59.5008C213.952 58.9131 213.47 58.4366 212.875 58.4366H193.465Z" fill="url(#paint4_linear_203_13343)"/>
<path d="M193.465 58.4366C192.87 58.4366 192.388 58.9131 192.388 59.5008V64.0322C192.388 64.62 192.87 65.0964 193.465 65.0964H199.464V79.296C199.464 79.8837 199.947 80.3602 200.542 80.3602H205.799C206.393 80.3602 206.876 79.8837 206.876 79.296V65.0964H212.875C213.47 65.0964 213.952 64.62 213.952 64.0322V59.5008C213.952 58.9131 213.47 58.4366 212.875 58.4366H193.465Z" fill="black"/>
<path d="M233.223 60.4222C231.422 58.8916 229.036 57.9816 226.356 57.9816C219.991 57.9816 215.343 62.6145 215.343 69.3984C215.343 75.8928 219.74 80.8152 226.356 80.8152C228.994 80.8152 231.338 79.9465 233.181 78.416L233.363 79.4746C233.451 79.9861 233.9 80.3602 234.425 80.3602H238.678C239.272 80.3602 239.755 79.8837 239.755 79.296V59.5008C239.755 58.9131 239.272 58.4366 238.678 58.4366H234.447C233.912 58.4366 233.459 58.8244 233.381 59.3473L233.223 60.4222ZM227.57 74.1968C224.765 74.1968 222.755 72.2112 222.755 69.3984C222.755 66.5856 224.765 64.6 227.57 64.6C230.375 64.6 232.385 66.5856 232.385 69.3984C232.385 72.2112 230.375 74.1968 227.57 74.1968Z" fill="url(#paint5_linear_203_13343)"/>
<path d="M233.223 60.4222C231.422 58.8916 229.036 57.9816 226.356 57.9816C219.991 57.9816 215.343 62.6145 215.343 69.3984C215.343 75.8928 219.74 80.8152 226.356 80.8152C228.994 80.8152 231.338 79.9465 233.181 78.416L233.363 79.4746C233.451 79.9861 233.9 80.3602 234.425 80.3602H238.678C239.272 80.3602 239.755 79.8837 239.755 79.296V59.5008C239.755 58.9131 239.272 58.4366 238.678 58.4366H234.447C233.912 58.4366 233.459 58.8244 233.381 59.3473L233.223 60.4222ZM227.57 74.1968C224.765 74.1968 222.755 72.2112 222.755 69.3984C222.755 66.5856 224.765 64.6 227.57 64.6C230.375 64.6 232.385 66.5856 232.385 69.3984C232.385 72.2112 230.375 74.1968 227.57 74.1968Z" fill="black"/>
<path d="M258.462 57.9816C255.783 57.9816 253.396 58.8916 251.553 60.3808L251.422 59.3661C251.354 58.8347 250.896 58.4366 250.354 58.4366H246.141C245.546 58.4366 245.063 58.9131 245.063 59.5008V86.204C245.063 86.7917 245.546 87.2682 246.141 87.2682H251.397C251.992 87.2682 252.475 86.7917 252.475 86.204V79.0779C254.191 80.1947 256.243 80.8152 258.462 80.8152C265.078 80.8152 269.391 75.7687 269.391 69.3984C269.391 62.7386 264.827 57.9816 258.462 57.9816ZM257.206 74.1968C254.401 74.1968 252.391 72.2112 252.391 69.3984C252.391 66.5856 254.401 64.6 257.206 64.6C260.012 64.6 262.021 66.5856 262.021 69.3984C262.021 72.2112 260.012 74.1968 257.206 74.1968Z" fill="url(#paint6_linear_203_13343)"/>
<path d="M258.462 57.9816C255.783 57.9816 253.396 58.8916 251.553 60.3808L251.422 59.3661C251.354 58.8347 250.896 58.4366 250.354 58.4366H246.141C245.546 58.4366 245.063 58.9131 245.063 59.5008V86.204C245.063 86.7917 245.546 87.2682 246.141 87.2682H251.397C251.992 87.2682 252.475 86.7917 252.475 86.204V79.0779C254.191 80.1947 256.243 80.8152 258.462 80.8152C265.078 80.8152 269.391 75.7687 269.391 69.3984C269.391 62.7386 264.827 57.9816 258.462 57.9816ZM257.206 74.1968C254.401 74.1968 252.391 72.2112 252.391 69.3984C252.391 66.5856 254.401 64.6 257.206 64.6C260.012 64.6 262.021 66.5856 262.021 69.3984C262.021 72.2112 260.012 74.1968 257.206 74.1968Z" fill="black"/>
<defs>
<linearGradient id="paint0_linear_203_13343" x1="30.3" y1="29.8864" x2="100.038" y2="35.231" gradientUnits="userSpaceOnUse">
<stop stop-color="#5ECDD9"/>
<stop offset="1" stop-color="#496CE3"/>
</linearGradient>
<linearGradient id="paint1_linear_203_13343" x1="110.396" y1="69.2832" x2="277.901" y2="69.2832" gradientUnits="userSpaceOnUse">
<stop stop-color="#638EFF"/>
<stop offset="0.342014" stop-color="#0083FC"/>
<stop offset="0.664931" stop-color="#7000FF"/>
<stop offset="1" stop-color="#F41CD4"/>
</linearGradient>
<linearGradient id="paint2_linear_203_13343" x1="110.396" y1="69.2832" x2="277.901" y2="69.2832" gradientUnits="userSpaceOnUse">
<stop stop-color="#638EFF"/>
<stop offset="0.342014" stop-color="#0083FC"/>
<stop offset="0.664931" stop-color="#7000FF"/>
<stop offset="1" stop-color="#F41CD4"/>
</linearGradient>
<linearGradient id="paint3_linear_203_13343" x1="110.396" y1="69.2832" x2="277.901" y2="69.2832" gradientUnits="userSpaceOnUse">
<stop stop-color="#638EFF"/>
<stop offset="0.342014" stop-color="#0083FC"/>
<stop offset="0.664931" stop-color="#7000FF"/>
<stop offset="1" stop-color="#F41CD4"/>
</linearGradient>
<linearGradient id="paint4_linear_203_13343" x1="110.396" y1="69.2832" x2="277.901" y2="69.2832" gradientUnits="userSpaceOnUse">
<stop stop-color="#638EFF"/>
<stop offset="0.342014" stop-color="#0083FC"/>
<stop offset="0.664931" stop-color="#7000FF"/>
<stop offset="1" stop-color="#F41CD4"/>
</linearGradient>
<linearGradient id="paint5_linear_203_13343" x1="110.396" y1="69.2832" x2="277.901" y2="69.2832" gradientUnits="userSpaceOnUse">
<stop stop-color="#638EFF"/>
<stop offset="0.342014" stop-color="#0083FC"/>
<stop offset="0.664931" stop-color="#7000FF"/>
<stop offset="1" stop-color="#F41CD4"/>
</linearGradient>
<linearGradient id="paint6_linear_203_13343" x1="110.396" y1="69.2832" x2="277.901" y2="69.2832" gradientUnits="userSpaceOnUse">
<stop stop-color="#638EFF"/>
<stop offset="0.342014" stop-color="#0083FC"/>
<stop offset="0.664931" stop-color="#7000FF"/>
<stop offset="1" stop-color="#F41CD4"/>
</linearGradient>
</defs>
</svg>
