<svg width="440" height="57" viewBox="0 0 440 57" fill="none" xmlns="http://www.w3.org/2000/svg">
<rect y="0.212341" width="440" height="40" rx="12" fill="url(#paint0_linear_35_611)"/>
<path d="M134.684 25.2123H133.06V16.7703H128.272V25.2123H126.648V15.3143H134.684V25.2123ZM141.212 25.3103C140.437 25.3103 139.751 25.1843 139.154 24.9323C138.566 24.671 138.071 24.3163 137.67 23.8683C137.269 23.4203 136.961 22.8883 136.746 22.2723C136.541 21.6563 136.438 20.9843 136.438 20.2563C136.438 19.519 136.545 18.8423 136.76 18.2263C136.975 17.601 137.283 17.0643 137.684 16.6163C138.095 16.1683 138.594 15.8183 139.182 15.5663C139.779 15.3143 140.461 15.1883 141.226 15.1883C141.991 15.1883 142.668 15.3143 143.256 15.5663C143.853 15.809 144.353 16.1543 144.754 16.6023C145.165 17.0503 145.473 17.587 145.678 18.2123C145.893 18.8283 146 19.505 146 20.2423C146 20.9703 145.893 21.647 145.678 22.2723C145.473 22.8883 145.165 23.4203 144.754 23.8683C144.353 24.3163 143.853 24.671 143.256 24.9323C142.659 25.1843 141.977 25.3103 141.212 25.3103ZM141.226 16.6443C140.694 16.6443 140.232 16.7423 139.84 16.9383C139.457 17.1343 139.135 17.3957 138.874 17.7223C138.613 18.049 138.417 18.4317 138.286 18.8703C138.165 19.309 138.104 19.7663 138.104 20.2423C138.104 20.7183 138.165 21.1757 138.286 21.6143C138.417 22.0437 138.608 22.4263 138.86 22.7623C139.121 23.0983 139.448 23.3643 139.84 23.5603C140.232 23.7563 140.694 23.8543 141.226 23.8543C141.749 23.8543 142.206 23.761 142.598 23.5743C142.99 23.3783 143.312 23.117 143.564 22.7903C143.825 22.4637 144.017 22.0857 144.138 21.6563C144.269 21.2177 144.334 20.751 144.334 20.2563C144.334 19.771 144.269 19.3137 144.138 18.8843C144.017 18.4457 143.825 18.063 143.564 17.7363C143.312 17.4003 142.99 17.1343 142.598 16.9383C142.215 16.7423 141.758 16.6443 141.226 16.6443ZM146.697 27.8303V23.7703H146.809C147.098 23.7703 147.332 23.6957 147.509 23.5463C147.696 23.3877 147.845 23.173 147.957 22.9023C148.069 22.6317 148.148 22.319 148.195 21.9643C148.251 21.6003 148.293 21.2083 148.321 20.7883C148.377 19.855 148.41 18.945 148.419 18.0583C148.438 17.1623 148.456 16.2477 148.475 15.3143H155.209V23.7703H156.399V27.8303H154.789V25.2123H148.307V27.8303H146.697ZM153.585 23.7703V16.7703H150.015L149.917 20.2843C149.908 20.5083 149.894 20.7697 149.875 21.0683C149.866 21.3577 149.842 21.661 149.805 21.9783C149.777 22.2863 149.73 22.599 149.665 22.9163C149.6 23.2243 149.516 23.509 149.413 23.7703H153.585ZM157.779 25.2123V15.3143H164.653V16.7703H159.403V19.5843H164.051V21.0543H159.403V23.7703H164.653V25.2123H157.779ZM172.328 25.2123V16.7703H168.716C168.706 17.0597 168.702 17.3257 168.702 17.5683C168.702 17.8017 168.697 18.077 168.688 18.3943C168.688 18.7117 168.683 19.071 168.674 19.4723C168.664 19.8737 168.65 20.3403 168.632 20.8723C168.632 21.1243 168.622 21.3857 168.604 21.6563C168.594 21.9177 168.571 22.179 168.534 22.4403C168.506 22.7017 168.464 22.949 168.408 23.1823C168.361 23.4157 168.291 23.6257 168.198 23.8123C167.946 24.3257 167.605 24.699 167.176 24.9323C166.746 25.1563 166.172 25.2683 165.454 25.2683V23.7843C165.808 23.7843 166.088 23.6817 166.294 23.4763C166.508 23.271 166.667 23.005 166.77 22.6783C166.882 22.3423 166.952 21.9643 166.98 21.5443C167.017 21.115 167.045 20.681 167.064 20.2423C167.073 19.645 167.082 19.1177 167.092 18.6603C167.101 18.1937 167.11 17.769 167.12 17.3863C167.129 17.0037 167.134 16.649 167.134 16.3223C167.134 15.9863 167.138 15.6503 167.148 15.3143H173.952V25.2123H172.328ZM176.25 25.2123V15.3143H177.874V22.5803L182.956 15.3143H184.412V25.2123H182.788V18.0163L177.706 25.2123H176.25ZM190.461 25.2123H188.837V16.7703H185.687V15.3143H193.597V16.7703H190.461V25.2123ZM194.857 15.3143H196.481V19.1363H198.665C199.178 19.1363 199.654 19.183 200.093 19.2763C200.531 19.3697 200.909 19.533 201.227 19.7663C201.553 19.9903 201.805 20.289 201.983 20.6623C202.169 21.0357 202.267 21.5023 202.277 22.0623C202.277 22.669 202.169 23.173 201.955 23.5743C201.749 23.9757 201.469 24.2977 201.115 24.5403C200.76 24.783 200.345 24.9557 199.869 25.0583C199.393 25.161 198.884 25.2123 198.343 25.2123H194.857V15.3143ZM196.481 23.7703H198.273C198.562 23.7703 198.851 23.7517 199.141 23.7143C199.43 23.677 199.687 23.6023 199.911 23.4903C200.135 23.369 200.317 23.201 200.457 22.9863C200.597 22.7717 200.667 22.487 200.667 22.1323C200.667 21.787 200.601 21.5117 200.471 21.3063C200.349 21.101 200.181 20.947 199.967 20.8443C199.761 20.7417 199.523 20.6763 199.253 20.6483C198.982 20.611 198.702 20.5923 198.413 20.5923H196.481V23.7703ZM208.174 16.6443C207.651 16.6443 207.199 16.7423 206.816 16.9383C206.443 17.1343 206.135 17.3957 205.892 17.7223C205.649 18.049 205.467 18.4317 205.346 18.8703C205.234 19.2997 205.178 19.7523 205.178 20.2283C205.178 20.7137 205.239 21.1757 205.36 21.6143C205.481 22.053 205.663 22.4403 205.906 22.7763C206.158 23.103 206.475 23.3643 206.858 23.5603C207.241 23.7563 207.693 23.8543 208.216 23.8543C208.86 23.8543 209.397 23.7143 209.826 23.4343C210.265 23.1543 210.54 22.7763 210.652 22.3003H212.276C212.201 22.7763 212.043 23.201 211.8 23.5743C211.567 23.9477 211.273 24.265 210.918 24.5263C210.563 24.7783 210.153 24.9743 209.686 25.1143C209.219 25.245 208.72 25.3103 208.188 25.3103C207.413 25.3103 206.732 25.1843 206.144 24.9323C205.565 24.6803 205.08 24.3303 204.688 23.8823C204.296 23.4343 204.002 22.9023 203.806 22.2863C203.61 21.6703 203.512 20.9937 203.512 20.2563C203.512 19.5377 203.61 18.8703 203.806 18.2543C204.011 17.629 204.31 17.0923 204.702 16.6443C205.094 16.187 205.579 15.8323 206.158 15.5803C206.746 15.319 207.427 15.1883 208.202 15.1883C209.294 15.1883 210.195 15.445 210.904 15.9583C211.613 16.4717 212.043 17.2277 212.192 18.2263H210.596C210.475 17.741 210.204 17.3583 209.784 17.0783C209.364 16.789 208.827 16.6443 208.174 16.6443ZM217.595 21.6843L215.439 25.2123H213.577L215.943 21.4603C215.243 21.3017 214.688 20.9797 214.277 20.4943C213.866 20.009 213.661 19.3697 213.661 18.5763C213.661 17.979 213.75 17.475 213.927 17.0643C214.114 16.6537 214.37 16.3177 214.697 16.0563C215.024 15.795 215.42 15.6083 215.887 15.4963C216.354 15.375 216.872 15.3143 217.441 15.3143H221.193V25.2123H219.583V21.6843H217.595ZM219.583 20.2563V16.7703H217.441C216.722 16.7703 216.181 16.9057 215.817 17.1763C215.453 17.4377 215.271 17.8997 215.271 18.5623C215.28 18.917 215.364 19.211 215.523 19.4443C215.682 19.6683 215.878 19.841 216.111 19.9623C216.344 20.0743 216.606 20.1537 216.895 20.2003C217.194 20.2377 217.478 20.2563 217.749 20.2563H219.583ZM228.883 25.2123H227.259V15.3143H228.883V19.6403H230.157L233.209 15.3143H235.071L231.543 20.1163L235.113 25.2123H233.223L230.311 21.0823H228.883V25.2123ZM240.196 25.3103C239.422 25.3103 238.736 25.1843 238.138 24.9323C237.55 24.671 237.056 24.3163 236.654 23.8683C236.253 23.4203 235.945 22.8883 235.73 22.2723C235.525 21.6563 235.422 20.9843 235.422 20.2563C235.422 19.519 235.53 18.8423 235.744 18.2263C235.959 17.601 236.267 17.0643 236.668 16.6163C237.079 16.1683 237.578 15.8183 238.166 15.5663C238.764 15.3143 239.445 15.1883 240.21 15.1883C240.976 15.1883 241.652 15.3143 242.24 15.5663C242.838 15.809 243.337 16.1543 243.738 16.6023C244.149 17.0503 244.457 17.587 244.662 18.2123C244.877 18.8283 244.984 19.505 244.984 20.2423C244.984 20.9703 244.877 21.647 244.662 22.2723C244.457 22.8883 244.149 23.4203 243.738 23.8683C243.337 24.3163 242.838 24.671 242.24 24.9323C241.643 25.1843 240.962 25.3103 240.196 25.3103ZM240.21 16.6443C239.678 16.6443 239.216 16.7423 238.824 16.9383C238.442 17.1343 238.12 17.3957 237.858 17.7223C237.597 18.049 237.401 18.4317 237.27 18.8703C237.149 19.309 237.088 19.7663 237.088 20.2423C237.088 20.7183 237.149 21.1757 237.27 21.6143C237.401 22.0437 237.592 22.4263 237.844 22.7623C238.106 23.0983 238.432 23.3643 238.824 23.5603C239.216 23.7563 239.678 23.8543 240.21 23.8543C240.733 23.8543 241.19 23.761 241.582 23.5743C241.974 23.3783 242.296 23.117 242.548 22.7903C242.81 22.4637 243.001 22.0857 243.122 21.6563C243.253 21.2177 243.318 20.751 243.318 20.2563C243.318 19.771 243.253 19.3137 243.122 18.8843C243.001 18.4457 242.81 18.063 242.548 17.7363C242.296 17.4003 241.974 17.1343 241.582 16.9383C241.2 16.7423 240.742 16.6443 240.21 16.6443ZM248.352 19.6123H253.098V15.3143H254.722V25.2123H253.098V21.0683H248.352V25.2123H246.728V15.3143H248.352V19.6123ZM260.775 25.2123H259.151V16.7703H256.001V15.3143H263.911V16.7703H260.775V25.2123ZM265.185 25.2123V15.3143H272.059V16.7703H266.809V19.5843H271.457V21.0543H266.809V23.7703H272.059V25.2123H265.185ZM275.436 19.6123H280.182V15.3143H281.806V25.2123H280.182V21.0683H275.436V25.2123H273.812V15.3143H275.436V19.6123ZM287.859 25.2123H286.235V16.7703H283.085V15.3143H290.995V16.7703H287.859V25.2123ZM296.224 25.3103C295.449 25.3103 294.763 25.1843 294.166 24.9323C293.578 24.671 293.083 24.3163 292.682 23.8683C292.28 23.4203 291.972 22.8883 291.758 22.2723C291.552 21.6563 291.45 20.9843 291.45 20.2563C291.45 19.519 291.557 18.8423 291.772 18.2263C291.986 17.601 292.294 17.0643 292.696 16.6163C293.106 16.1683 293.606 15.8183 294.194 15.5663C294.791 15.3143 295.472 15.1883 296.238 15.1883C297.003 15.1883 297.68 15.3143 298.268 15.5663C298.865 15.809 299.364 16.1543 299.766 16.6023C300.176 17.0503 300.484 17.587 300.69 18.2123C300.904 18.8283 301.012 19.505 301.012 20.2423C301.012 20.9703 300.904 21.647 300.69 22.2723C300.484 22.8883 300.176 23.4203 299.766 23.8683C299.364 24.3163 298.865 24.671 298.268 24.9323C297.67 25.1843 296.989 25.3103 296.224 25.3103ZM296.238 16.6443C295.706 16.6443 295.244 16.7423 294.852 16.9383C294.469 17.1343 294.147 17.3957 293.886 17.7223C293.624 18.049 293.428 18.4317 293.298 18.8703C293.176 19.309 293.116 19.7663 293.116 20.2423C293.116 20.7183 293.176 21.1757 293.298 21.6143C293.428 22.0437 293.62 22.4263 293.872 22.7623C294.133 23.0983 294.46 23.3643 294.852 23.5603C295.244 23.7563 295.706 23.8543 296.238 23.8543C296.76 23.8543 297.218 23.761 297.61 23.5743C298.002 23.3783 298.324 23.117 298.576 22.7903C298.837 22.4637 299.028 22.0857 299.15 21.6563C299.28 21.2177 299.346 20.751 299.346 20.2563C299.346 19.771 299.28 19.3137 299.15 18.8843C299.028 18.4457 298.837 18.063 298.576 17.7363C298.324 17.4003 298.002 17.1343 297.61 16.9383C297.227 16.7423 296.77 16.6443 296.238 16.6443ZM302.755 25.2123V15.3143H304.799L307.753 20.3823L310.679 15.3143H312.667V25.2123H311.057V17.4983L308.075 22.6363H307.347L304.365 17.4983V25.2123H302.755Z" fill="white"/>
<path d="M24.5677 55.6263V52.8863C24.8077 52.8863 24.9877 52.8429 25.1077 52.7563C25.2343 52.6629 25.331 52.5396 25.3977 52.3863C25.4777 52.1863 25.541 51.9263 25.5877 51.6063C25.641 51.2796 25.681 50.9463 25.7077 50.6063C25.7543 49.9396 25.7877 49.2729 25.8077 48.6063C25.8277 47.9396 25.841 47.2729 25.8477 46.6063H30.3677V52.8863H31.2177V55.6263H30.3477V53.6763H25.4377V55.6263H24.5677ZM29.4977 52.8863V47.3963H26.6977L26.6077 50.1463C26.601 50.3063 26.591 50.4963 26.5777 50.7163C26.571 50.9363 26.551 51.1696 26.5177 51.4163C26.491 51.6563 26.451 51.9029 26.3977 52.1563C26.3443 52.4096 26.271 52.6529 26.1777 52.8863H29.4977ZM32.7928 51.2063C32.8261 50.7263 32.8495 50.2596 32.8628 49.8063C32.8828 49.3529 32.8961 48.8863 32.9028 48.4063H36.5628V53.6763H35.7128V49.1563H33.7328L33.6428 51.2263C33.6295 51.4929 33.5995 51.7929 33.5528 52.1263C33.5061 52.4596 33.4095 52.7629 33.2628 53.0363C33.1495 53.2296 32.9961 53.3863 32.8028 53.5063C32.6095 53.6263 32.3861 53.6863 32.1328 53.6863H31.8228V52.9363C32.0895 52.9363 32.3028 52.8229 32.4628 52.5963C32.5561 52.4629 32.6295 52.2696 32.6828 52.0163C32.7361 51.7629 32.7728 51.4929 32.7928 51.2063ZM41.8985 53.6763H41.0485V51.7263H39.8385L38.5585 53.6763H37.5685L38.9385 51.5963C38.5585 51.4896 38.2618 51.3163 38.0485 51.0763C37.8352 50.8296 37.7218 50.5029 37.7085 50.0963C37.7018 49.7429 37.7552 49.4596 37.8685 49.2463C37.9885 49.0263 38.1452 48.8496 38.3385 48.7163C38.5252 48.5829 38.7418 48.4996 38.9885 48.4663C39.2352 48.4263 39.4985 48.4063 39.7785 48.4063H41.8985V53.6763ZM41.0485 49.1563L39.9185 49.1463C39.7518 49.1463 39.5818 49.1529 39.4085 49.1663C39.2418 49.1796 39.0918 49.2229 38.9585 49.2963C38.8452 49.3629 38.7518 49.4596 38.6785 49.5863C38.6118 49.7063 38.5752 49.8629 38.5685 50.0563C38.5752 50.2363 38.6185 50.3896 38.6985 50.5163C38.7785 50.6363 38.8918 50.7329 39.0385 50.8063C39.2318 50.8996 39.4452 50.9529 39.6785 50.9663C39.9185 50.9796 40.1652 50.9863 40.4185 50.9863H41.0485V49.1563ZM45.9356 53.6763V48.4063H50.3056V53.6763H49.4556V49.1563H46.7856V53.6763H45.9356ZM52.4985 55.5763H51.6485V48.4063H52.4585L52.4985 49.2163C52.6785 48.9296 52.9218 48.7163 53.2285 48.5763C53.5418 48.4296 53.8785 48.3529 54.2385 48.3463C54.6452 48.3463 54.9885 48.4163 55.2685 48.5563C55.5552 48.6896 55.7918 48.8796 55.9785 49.1263C56.1718 49.3663 56.3152 49.6529 56.4085 49.9863C56.5018 50.3129 56.5485 50.6663 56.5485 51.0463C56.5485 51.4329 56.5018 51.7896 56.4085 52.1163C56.3152 52.4429 56.1718 52.7263 55.9785 52.9663C55.7852 53.2063 55.5418 53.3963 55.2485 53.5363C54.9552 53.6696 54.6052 53.7363 54.1985 53.7363C53.7985 53.7363 53.4585 53.6729 53.1785 53.5463C52.8985 53.4196 52.6718 53.2529 52.4985 53.0463V55.5763ZM54.1285 52.9863C54.4152 52.9863 54.6552 52.9363 54.8485 52.8363C55.0485 52.7296 55.2085 52.5896 55.3285 52.4163C55.4552 52.2363 55.5452 52.0296 55.5985 51.7963C55.6585 51.5629 55.6918 51.3129 55.6985 51.0463C55.6985 50.7796 55.6685 50.5296 55.6085 50.2963C55.5552 50.0563 55.4652 49.8496 55.3385 49.6763C55.2118 49.5029 55.0452 49.3663 54.8385 49.2663C54.6385 49.1596 54.3952 49.1063 54.1085 49.1063C53.7685 49.1063 53.4752 49.1996 53.2285 49.3863C52.9818 49.5663 52.7952 49.7963 52.6685 50.0763C52.5952 50.2296 52.5452 50.3896 52.5185 50.5563C52.4918 50.7163 52.4785 50.8829 52.4785 51.0563C52.4785 51.2563 52.4918 51.4429 52.5185 51.6163C52.5452 51.7829 52.5952 51.9429 52.6685 52.0963C52.7952 52.3496 52.9785 52.5629 53.2185 52.7363C53.4652 52.9029 53.7685 52.9863 54.1285 52.9863ZM58.3046 51.3563C58.3246 51.5896 58.3713 51.8063 58.4446 52.0063C58.5246 52.1996 58.6313 52.3696 58.7646 52.5163C58.8979 52.6629 59.0613 52.7796 59.2546 52.8663C59.4546 52.9463 59.6846 52.9863 59.9446 52.9863C60.0713 52.9863 60.2013 52.9763 60.3346 52.9563C60.4746 52.9296 60.6046 52.8896 60.7246 52.8363C60.8446 52.7763 60.9513 52.6996 61.0446 52.6063C61.1379 52.5129 61.2079 52.3996 61.2546 52.2663H62.1246C62.0646 52.5196 61.9613 52.7396 61.8146 52.9263C61.6746 53.1129 61.5046 53.2663 61.3046 53.3863C61.1113 53.5063 60.8946 53.5963 60.6546 53.6563C60.4146 53.7096 60.1713 53.7363 59.9246 53.7363C59.5046 53.7363 59.1379 53.6696 58.8246 53.5363C58.5179 53.4029 58.2613 53.2196 58.0546 52.9863C57.8479 52.7463 57.6946 52.4629 57.5946 52.1363C57.4946 51.8029 57.4446 51.4396 57.4446 51.0463C57.4446 50.6529 57.4979 50.2929 57.6046 49.9663C57.7179 49.6329 57.8779 49.3463 58.0846 49.1063C58.2913 48.8663 58.5446 48.6796 58.8446 48.5463C59.1446 48.4129 59.5013 48.3463 59.9146 48.3463C60.3346 48.3463 60.6979 48.4296 61.0046 48.5963C61.3113 48.7629 61.5579 48.9829 61.7446 49.2563C61.9313 49.5229 62.0613 49.8129 62.1346 50.1263C62.2146 50.4396 62.2479 50.7296 62.2346 50.9963C62.2346 51.0563 62.2313 51.1163 62.2246 51.1763C62.2246 51.2363 62.2213 51.2963 62.2146 51.3563H58.3046ZM61.3746 50.6163C61.3613 50.1696 61.2213 49.8063 60.9546 49.5263C60.6879 49.2463 60.3313 49.1063 59.8846 49.1063C59.6379 49.1063 59.4213 49.1463 59.2346 49.2263C59.0479 49.3063 58.8913 49.4163 58.7646 49.5563C58.6379 49.6963 58.5379 49.8596 58.4646 50.0463C58.3913 50.2263 58.3446 50.4163 58.3246 50.6163H61.3746ZM63.8598 49.5663C63.8665 49.3729 63.8698 49.1796 63.8698 48.9863C63.8698 48.7929 63.8698 48.5996 63.8698 48.4063H67.6098V52.9363H68.2998V55.2963H67.4798V53.6763H63.6298V55.2963H62.8098V52.9363C63.0765 52.9363 63.2865 52.8163 63.4398 52.5763C63.5332 52.4429 63.6065 52.2529 63.6598 52.0063C63.7132 51.7529 63.7532 51.4863 63.7798 51.2063C63.8132 50.8996 63.8332 50.5963 63.8398 50.2963C63.8532 49.9896 63.8598 49.7463 63.8598 49.5663ZM66.7598 49.1563H64.6798C64.6732 49.4363 64.6665 49.7496 64.6598 50.0963C64.6532 50.4429 64.6398 50.7663 64.6198 51.0663C64.6132 51.1996 64.6032 51.3463 64.5898 51.5063C64.5765 51.6596 64.5532 51.8196 64.5198 51.9863C64.4932 52.1463 64.4498 52.3096 64.3898 52.4763C64.3365 52.6429 64.2598 52.7963 64.1598 52.9363H66.7598V49.1563ZM71.4376 53.7363C71.0176 53.7363 70.6542 53.6696 70.3476 53.5363C70.0409 53.4029 69.7876 53.2163 69.5876 52.9763C69.3876 52.7363 69.2376 52.4529 69.1376 52.1263C69.0376 51.7996 68.9876 51.4429 68.9876 51.0563C68.9876 50.6829 69.0409 50.3329 69.1476 50.0063C69.2542 49.6729 69.4109 49.3863 69.6176 49.1463C69.8242 48.8996 70.0842 48.7063 70.3976 48.5663C70.7109 48.4196 71.0909 48.3463 71.5376 48.3463C71.8042 48.3463 72.0409 48.3763 72.2476 48.4363C72.4542 48.4896 72.6476 48.5796 72.8276 48.7063C73.0142 48.8263 73.1742 48.9863 73.3076 49.1863C73.4409 49.3863 73.5376 49.6296 73.5976 49.9163H72.7276C72.6276 49.6229 72.4676 49.4129 72.2476 49.2863C72.0342 49.1596 71.7809 49.0996 71.4876 49.1063C71.2009 49.1063 70.9476 49.1629 70.7276 49.2763C70.5142 49.3829 70.3409 49.5263 70.2076 49.7063C70.0809 49.8863 69.9876 50.0963 69.9276 50.3363C69.8676 50.5696 69.8376 50.8096 69.8376 51.0563C69.8376 51.3163 69.8676 51.5629 69.9276 51.7963C69.9942 52.0296 70.0909 52.2363 70.2176 52.4163C70.3509 52.5896 70.5209 52.7296 70.7276 52.8363C70.9342 52.9363 71.1809 52.9863 71.4676 52.9863C71.6076 52.9863 71.7442 52.9729 71.8776 52.9463C72.0176 52.9196 72.1442 52.8763 72.2576 52.8163C72.3776 52.7496 72.4809 52.6629 72.5676 52.5563C72.6542 52.4496 72.7176 52.3196 72.7576 52.1663H73.6376C73.5842 52.4396 73.4876 52.6763 73.3476 52.8763C73.2142 53.0696 73.0476 53.2329 72.8476 53.3663C72.6476 53.4929 72.4276 53.5863 72.1876 53.6463C71.9476 53.7063 71.6976 53.7363 71.4376 53.7363ZM78.6049 48.4063V49.1563H76.7949V53.6763H75.9449V49.1563H74.1349V48.4063H78.6049ZM82.8334 53.0063C82.72 53.1596 82.59 53.2829 82.4434 53.3763C82.2967 53.4696 82.1434 53.5429 81.9834 53.5963C81.83 53.6496 81.6734 53.6863 81.5134 53.7063C81.36 53.7263 81.2067 53.7363 81.0534 53.7363C80.8067 53.7363 80.5734 53.7063 80.3534 53.6463C80.1334 53.5863 79.9334 53.4896 79.7534 53.3563C79.58 53.2229 79.44 53.0563 79.3334 52.8563C79.2334 52.6563 79.1834 52.4296 79.1834 52.1763C79.1834 51.8763 79.2367 51.6263 79.3434 51.4263C79.4567 51.2196 79.6067 51.0529 79.7934 50.9263C79.98 50.7996 80.1934 50.7129 80.4334 50.6663C80.68 50.6129 80.94 50.5863 81.2134 50.5863H82.7634C82.7634 50.1396 82.6667 49.7863 82.4734 49.5263C82.28 49.2596 81.9534 49.1196 81.4934 49.1063C81.2134 49.1063 80.9667 49.1529 80.7534 49.2463C80.54 49.3396 80.3934 49.4929 80.3134 49.7063H79.4034C79.45 49.4663 79.5434 49.2629 79.6834 49.0963C79.8234 48.9229 79.99 48.7829 80.1834 48.6763C80.3767 48.5629 80.5867 48.4796 80.8134 48.4263C81.04 48.3729 81.2667 48.3463 81.4934 48.3463C81.8867 48.3463 82.2167 48.4129 82.4834 48.5463C82.7567 48.6729 82.9767 48.8429 83.1434 49.0563C83.31 49.2629 83.4267 49.5163 83.4934 49.8163C83.56 50.1163 83.5934 50.4529 83.5934 50.8263V53.6763H82.8834L82.8334 53.0063ZM81.8334 51.2963C81.6734 51.2963 81.4867 51.2996 81.2734 51.3063C81.0667 51.3063 80.8667 51.3263 80.6734 51.3663C80.48 51.4063 80.3234 51.4896 80.2034 51.6163C80.09 51.7429 80.0334 51.9096 80.0334 52.1163C80.0334 52.2696 80.0634 52.3996 80.1234 52.5063C80.1834 52.6129 80.2634 52.7029 80.3634 52.7763C80.47 52.8496 80.59 52.9029 80.7234 52.9363C80.8567 52.9696 80.9934 52.9863 81.1334 52.9863C81.6334 52.9863 82.0267 52.8663 82.3134 52.6263C82.6067 52.3796 82.7567 52.0229 82.7634 51.5563V51.2963H81.8334ZM84.9102 48.4063H86.9502C87.2902 48.4063 87.5802 48.4296 87.8202 48.4763C88.0669 48.5229 88.2736 48.6063 88.4402 48.7263C88.5869 48.8263 88.7002 48.9596 88.7802 49.1263C88.8669 49.2929 88.9102 49.4896 88.9102 49.7163C88.9102 50.2429 88.6736 50.6196 88.2002 50.8463C88.5602 50.9263 88.8202 51.0829 88.9802 51.3163C89.1402 51.5496 89.2202 51.8163 89.2202 52.1163C89.2136 52.3963 89.1669 52.6263 89.0802 52.8063C88.9936 52.9796 88.8702 53.1329 88.7102 53.2663C88.5569 53.3929 88.3669 53.4929 88.1402 53.5663C87.9136 53.6396 87.6569 53.6763 87.3702 53.6763H84.9102V48.4063ZM85.7802 49.1563V50.6563H86.5102C86.6769 50.6563 86.8469 50.6529 87.0202 50.6463C87.1936 50.6329 87.3469 50.6029 87.4802 50.5563C87.6469 50.5029 87.7869 50.4163 87.9002 50.2963C88.0136 50.1763 88.0736 50.0329 88.0802 49.8663C88.0802 49.6729 88.0369 49.5329 87.9502 49.4463C87.8702 49.3529 87.7702 49.2863 87.6502 49.2463C87.5302 49.1996 87.4002 49.1729 87.2602 49.1663C87.1202 49.1596 86.9902 49.1563 86.8702 49.1563H85.7802ZM85.7802 52.9363H87.1702C87.3236 52.9363 87.4702 52.9263 87.6102 52.9063C87.7569 52.8863 87.8836 52.8496 87.9902 52.7963C88.0969 52.7363 88.1836 52.6563 88.2502 52.5563C88.3169 52.4563 88.3536 52.3296 88.3602 52.1763C88.3602 51.9763 88.3136 51.8196 88.2202 51.7063C88.1269 51.5863 88.0002 51.4996 87.8402 51.4463C87.7069 51.4063 87.5569 51.3829 87.3902 51.3763C87.2236 51.3696 87.0502 51.3663 86.8702 51.3663L85.7802 51.3763V52.9363ZM91.209 53.6763H90.379V48.4063H91.229V52.4463C91.2757 52.3529 91.339 52.2529 91.419 52.1463C91.499 52.0329 91.5623 51.9463 91.609 51.8863L94.159 48.4063H94.999V53.6763H94.149V49.6363C94.0957 49.7363 94.0357 49.8329 93.969 49.9263C93.909 50.0129 93.8523 50.0896 93.799 50.1563L91.209 53.6763ZM100.226 48.4063V49.1563H98.416V53.6763H97.566V49.1563H95.756V48.4063H100.226ZM101.644 51.3563C101.664 51.5896 101.711 51.8063 101.784 52.0063C101.864 52.1996 101.971 52.3696 102.104 52.5163C102.238 52.6629 102.401 52.7796 102.594 52.8663C102.794 52.9463 103.024 52.9863 103.284 52.9863C103.411 52.9863 103.541 52.9763 103.674 52.9563C103.814 52.9296 103.944 52.8896 104.064 52.8363C104.184 52.7763 104.291 52.6996 104.384 52.6063C104.478 52.5129 104.548 52.3996 104.594 52.2663H105.464C105.404 52.5196 105.301 52.7396 105.154 52.9263C105.014 53.1129 104.844 53.2663 104.644 53.3863C104.451 53.5063 104.234 53.5963 103.994 53.6563C103.754 53.7096 103.511 53.7363 103.264 53.7363C102.844 53.7363 102.478 53.6696 102.164 53.5363C101.858 53.4029 101.601 53.2196 101.394 52.9863C101.188 52.7463 101.034 52.4629 100.934 52.1363C100.834 51.8029 100.784 51.4396 100.784 51.0463C100.784 50.6529 100.838 50.2929 100.944 49.9663C101.058 49.6329 101.218 49.3463 101.424 49.1063C101.631 48.8663 101.884 48.6796 102.184 48.5463C102.484 48.4129 102.841 48.3463 103.254 48.3463C103.674 48.3463 104.038 48.4296 104.344 48.5963C104.651 48.7629 104.898 48.9829 105.084 49.2563C105.271 49.5229 105.401 49.8129 105.474 50.1263C105.554 50.4396 105.588 50.7296 105.574 50.9963C105.574 51.0563 105.571 51.1163 105.564 51.1763C105.564 51.2363 105.561 51.2963 105.554 51.3563H101.644ZM104.714 50.6163C104.701 50.1696 104.561 49.8063 104.294 49.5263C104.028 49.2463 103.671 49.1063 103.224 49.1063C102.978 49.1063 102.761 49.1463 102.574 49.2263C102.388 49.3063 102.231 49.4163 102.104 49.5563C101.978 49.6963 101.878 49.8596 101.804 50.0463C101.731 50.2263 101.684 50.4163 101.664 50.6163H104.714ZM107.158 51.2063C107.191 50.7263 107.215 50.2596 107.228 49.8063C107.248 49.3529 107.261 48.8863 107.268 48.4063H110.928V53.6763H110.078V49.1563H108.098L108.008 51.2263C107.995 51.4929 107.965 51.7929 107.918 52.1263C107.871 52.4596 107.775 52.7629 107.628 53.0363C107.515 53.2296 107.361 53.3863 107.168 53.5063C106.975 53.6263 106.751 53.6863 106.498 53.6863H106.188V52.9363C106.455 52.9363 106.668 52.8229 106.828 52.5963C106.921 52.4629 106.995 52.2696 107.048 52.0163C107.101 51.7629 107.138 51.4929 107.158 51.2063ZM112.924 51.3563C112.944 51.5896 112.99 51.8063 113.064 52.0063C113.144 52.1996 113.25 52.3696 113.384 52.5163C113.517 52.6629 113.68 52.7796 113.874 52.8663C114.074 52.9463 114.304 52.9863 114.564 52.9863C114.69 52.9863 114.82 52.9763 114.954 52.9563C115.094 52.9296 115.224 52.8896 115.344 52.8363C115.464 52.7763 115.57 52.6996 115.664 52.6063C115.757 52.5129 115.827 52.3996 115.874 52.2663H116.744C116.684 52.5196 116.58 52.7396 116.434 52.9263C116.294 53.1129 116.124 53.2663 115.924 53.3863C115.73 53.5063 115.514 53.5963 115.274 53.6563C115.034 53.7096 114.79 53.7363 114.544 53.7363C114.124 53.7363 113.757 53.6696 113.444 53.5363C113.137 53.4029 112.88 53.2196 112.674 52.9863C112.467 52.7463 112.314 52.4629 112.214 52.1363C112.114 51.8029 112.064 51.4396 112.064 51.0463C112.064 50.6529 112.117 50.2929 112.224 49.9663C112.337 49.6329 112.497 49.3463 112.704 49.1063C112.91 48.8663 113.164 48.6796 113.464 48.5463C113.764 48.4129 114.12 48.3463 114.534 48.3463C114.954 48.3463 115.317 48.4296 115.624 48.5963C115.93 48.7629 116.177 48.9829 116.364 49.2563C116.55 49.5229 116.68 49.8129 116.754 50.1263C116.834 50.4396 116.867 50.7296 116.854 50.9963C116.854 51.0563 116.85 51.1163 116.844 51.1763C116.844 51.2363 116.84 51.2963 116.834 51.3563H112.924ZM115.994 50.6163C115.98 50.1696 115.84 49.8063 115.574 49.5263C115.307 49.2463 114.95 49.1063 114.504 49.1063C114.257 49.1063 114.04 49.1463 113.854 49.2263C113.667 49.3063 113.51 49.4163 113.384 49.5563C113.257 49.6963 113.157 49.8596 113.084 50.0463C113.01 50.2263 112.964 50.4163 112.944 50.6163H115.994ZM120.386 47.0563C120.666 47.0563 120.89 47.0029 121.056 46.8963C121.23 46.7896 121.316 46.6029 121.316 46.3363H122.096C122.083 46.8163 121.923 47.1663 121.616 47.3863C121.316 47.6063 120.903 47.7163 120.376 47.7163C119.85 47.7163 119.436 47.6063 119.136 47.3863C118.843 47.1663 118.69 46.8163 118.676 46.3363H119.456C119.463 46.6029 119.55 46.7896 119.716 46.8963C119.883 47.0029 120.106 47.0563 120.386 47.0563ZM118.826 53.6763H117.996V48.4063H118.846V52.4463C118.893 52.3529 118.956 52.2529 119.036 52.1463C119.116 52.0329 119.18 51.9463 119.226 51.8863L121.776 48.4063H122.616V53.6763H121.766V49.6363C121.713 49.7363 121.653 49.8329 121.586 49.9263C121.526 50.0129 121.47 50.0896 121.416 50.1563L118.826 53.6763ZM128.969 48.3463C129.389 48.3463 129.752 48.4129 130.059 48.5463C130.365 48.6796 130.622 48.8663 130.829 49.1063C131.042 49.3463 131.199 49.6329 131.299 49.9663C131.405 50.2929 131.459 50.6529 131.459 51.0463C131.459 51.4396 131.405 51.8029 131.299 52.1363C131.199 52.4629 131.042 52.7463 130.829 52.9863C130.622 53.2196 130.362 53.4029 130.049 53.5363C129.735 53.6696 129.369 53.7363 128.949 53.7363C128.529 53.7363 128.162 53.6696 127.849 53.5363C127.542 53.4029 127.282 53.2196 127.069 52.9863C126.862 52.7463 126.705 52.4629 126.599 52.1363C126.499 51.8029 126.449 51.4396 126.449 51.0463C126.449 50.6529 126.499 50.2929 126.599 49.9663C126.705 49.6329 126.862 49.3463 127.069 49.1063C127.282 48.8663 127.545 48.6796 127.859 48.5463C128.172 48.4129 128.542 48.3463 128.969 48.3463ZM128.949 52.9863C129.235 52.9863 129.482 52.9363 129.689 52.8363C129.902 52.7363 130.075 52.5996 130.209 52.4263C130.349 52.2463 130.449 52.0396 130.509 51.8063C130.575 51.5729 130.609 51.3196 130.609 51.0463C130.609 50.7796 130.575 50.5296 130.509 50.2963C130.449 50.0563 130.349 49.8496 130.209 49.6763C130.075 49.4963 129.902 49.3563 129.689 49.2563C129.482 49.1563 129.235 49.1063 128.949 49.1063C128.662 49.1063 128.415 49.1563 128.209 49.2563C128.002 49.3563 127.829 49.4963 127.689 49.6763C127.555 49.8496 127.455 50.0563 127.389 50.2963C127.329 50.5296 127.299 50.7796 127.299 51.0463C127.299 51.3196 127.329 51.5729 127.389 51.8063C127.455 52.0396 127.555 52.2463 127.689 52.4263C127.829 52.5996 128.002 52.7363 128.209 52.8363C128.415 52.9363 128.662 52.9863 128.949 52.9863ZM133.446 55.5763H132.596V48.4063H133.406L133.446 49.2163C133.626 48.9296 133.869 48.7163 134.176 48.5763C134.489 48.4296 134.826 48.3529 135.186 48.3463C135.592 48.3463 135.936 48.4163 136.216 48.5563C136.502 48.6896 136.739 48.8796 136.926 49.1263C137.119 49.3663 137.262 49.6529 137.356 49.9863C137.449 50.3129 137.496 50.6663 137.496 51.0463C137.496 51.4329 137.449 51.7896 137.356 52.1163C137.262 52.4429 137.119 52.7263 136.926 52.9663C136.732 53.2063 136.489 53.3963 136.196 53.5363C135.902 53.6696 135.552 53.7363 135.146 53.7363C134.746 53.7363 134.406 53.6729 134.126 53.5463C133.846 53.4196 133.619 53.2529 133.446 53.0463V55.5763ZM135.076 52.9863C135.362 52.9863 135.602 52.9363 135.796 52.8363C135.996 52.7296 136.156 52.5896 136.276 52.4163C136.402 52.2363 136.492 52.0296 136.546 51.7963C136.606 51.5629 136.639 51.3129 136.646 51.0463C136.646 50.7796 136.616 50.5296 136.556 50.2963C136.502 50.0563 136.412 49.8496 136.286 49.6763C136.159 49.5029 135.992 49.3663 135.786 49.2663C135.586 49.1596 135.342 49.1063 135.056 49.1063C134.716 49.1063 134.422 49.1996 134.176 49.3863C133.929 49.5663 133.742 49.7963 133.616 50.0763C133.542 50.2296 133.492 50.3896 133.466 50.5563C133.439 50.7163 133.426 50.8829 133.426 51.0563C133.426 51.2563 133.439 51.4429 133.466 51.6163C133.492 51.7829 133.542 51.9429 133.616 52.0963C133.742 52.3496 133.926 52.5629 134.166 52.7363C134.412 52.9029 134.716 52.9863 135.076 52.9863ZM138.592 53.6763V48.4063H142.232V49.1563H139.442V53.6763H138.592ZM146.456 53.0063C146.343 53.1596 146.213 53.2829 146.066 53.3763C145.92 53.4696 145.766 53.5429 145.606 53.5963C145.453 53.6496 145.296 53.6863 145.136 53.7063C144.983 53.7263 144.83 53.7363 144.676 53.7363C144.43 53.7363 144.196 53.7063 143.976 53.6463C143.756 53.5863 143.556 53.4896 143.376 53.3563C143.203 53.2229 143.063 53.0563 142.956 52.8563C142.856 52.6563 142.806 52.4296 142.806 52.1763C142.806 51.8763 142.86 51.6263 142.966 51.4263C143.08 51.2196 143.23 51.0529 143.416 50.9263C143.603 50.7996 143.816 50.7129 144.056 50.6663C144.303 50.6129 144.563 50.5863 144.836 50.5863H146.386C146.386 50.1396 146.29 49.7863 146.096 49.5263C145.903 49.2596 145.576 49.1196 145.116 49.1063C144.836 49.1063 144.59 49.1529 144.376 49.2463C144.163 49.3396 144.016 49.4929 143.936 49.7063H143.026C143.073 49.4663 143.166 49.2629 143.306 49.0963C143.446 48.9229 143.613 48.7829 143.806 48.6763C144 48.5629 144.21 48.4796 144.436 48.4263C144.663 48.3729 144.89 48.3463 145.116 48.3463C145.51 48.3463 145.84 48.4129 146.106 48.5463C146.38 48.6729 146.6 48.8429 146.766 49.0563C146.933 49.2629 147.05 49.5163 147.116 49.8163C147.183 50.1163 147.216 50.4529 147.216 50.8263V53.6763H146.506L146.456 53.0063ZM145.456 51.2963C145.296 51.2963 145.11 51.2996 144.896 51.3063C144.69 51.3063 144.49 51.3263 144.296 51.3663C144.103 51.4063 143.946 51.4896 143.826 51.6163C143.713 51.7429 143.656 51.9096 143.656 52.1163C143.656 52.2696 143.686 52.3996 143.746 52.5063C143.806 52.6129 143.886 52.7029 143.986 52.7763C144.093 52.8496 144.213 52.9029 144.346 52.9363C144.48 52.9696 144.616 52.9863 144.756 52.9863C145.256 52.9863 145.65 52.8663 145.936 52.6263C146.23 52.3796 146.38 52.0229 146.386 51.5563V51.2963H145.456ZM148.533 53.6763V48.4063H149.383V50.7163H152.023V48.4063H152.873V53.6763H152.023V51.4663H149.383V53.6763H148.533ZM155.047 53.6763H154.217V48.4063H155.067V52.4463C155.114 52.3529 155.177 52.2529 155.257 52.1463C155.337 52.0329 155.4 51.9463 155.447 51.8863L157.997 48.4063H158.837V53.6763H157.987V49.6363C157.934 49.7363 157.874 49.8329 157.807 49.9263C157.747 50.0129 157.69 50.0896 157.637 50.1563L155.047 53.6763ZM163.304 50.8463C163.644 50.9529 163.881 51.1196 164.014 51.3463C164.147 51.5729 164.214 51.8429 164.214 52.1563C164.207 52.4363 164.141 52.6763 164.014 52.8763C163.894 53.0763 163.734 53.2396 163.534 53.3663C163.334 53.4929 163.107 53.5863 162.854 53.6463C162.601 53.7063 162.341 53.7363 162.074 53.7363C161.821 53.7363 161.564 53.7129 161.304 53.6663C161.051 53.6196 160.821 53.5396 160.614 53.4263C160.407 53.3129 160.234 53.1629 160.094 52.9763C159.961 52.7896 159.887 52.5529 159.874 52.2663H160.704C160.731 52.4063 160.794 52.5229 160.894 52.6163C160.994 52.7029 161.111 52.7763 161.244 52.8363C161.384 52.8896 161.527 52.9296 161.674 52.9563C161.827 52.9763 161.964 52.9863 162.084 52.9863C162.224 52.9863 162.367 52.9763 162.514 52.9563C162.667 52.9363 162.807 52.8963 162.934 52.8363C163.061 52.7763 163.164 52.6929 163.244 52.5863C163.324 52.4729 163.364 52.3296 163.364 52.1563C163.364 52.0163 163.334 51.8896 163.274 51.7763C163.214 51.6563 163.121 51.5663 162.994 51.5063C162.881 51.4529 162.751 51.4229 162.604 51.4163C162.457 51.4029 162.321 51.3963 162.194 51.3963H161.254V50.6463H162.024C162.151 50.6463 162.281 50.6363 162.414 50.6163C162.547 50.5896 162.667 50.5463 162.774 50.4863C162.887 50.4263 162.977 50.3496 163.044 50.2563C163.117 50.1563 163.157 50.0163 163.164 49.8363C163.164 49.6963 163.131 49.5796 163.064 49.4863C163.004 49.3929 162.921 49.3196 162.814 49.2663C162.714 49.2063 162.597 49.1663 162.464 49.1463C162.337 49.1196 162.211 49.1063 162.084 49.1063C161.964 49.1063 161.837 49.1163 161.704 49.1363C161.571 49.1496 161.447 49.1829 161.334 49.2363C161.221 49.2829 161.124 49.3496 161.044 49.4363C160.964 49.5229 160.914 49.6363 160.894 49.7763H160.054C160.061 49.5096 160.124 49.2863 160.244 49.1063C160.371 48.9196 160.531 48.7729 160.724 48.6663C160.917 48.5529 161.131 48.4729 161.364 48.4263C161.604 48.3729 161.841 48.3463 162.074 48.3463C162.307 48.3463 162.537 48.3696 162.764 48.4163C162.997 48.4629 163.204 48.5429 163.384 48.6563C163.564 48.7629 163.711 48.9063 163.824 49.0863C163.937 49.2663 163.994 49.4896 163.994 49.7563C163.994 49.9963 163.937 50.2096 163.824 50.3963C163.711 50.5829 163.537 50.7329 163.304 50.8463ZM168.781 53.0063C168.667 53.1596 168.537 53.2829 168.391 53.3763C168.244 53.4696 168.091 53.5429 167.931 53.5963C167.777 53.6496 167.621 53.6863 167.461 53.7063C167.307 53.7263 167.154 53.7363 167.001 53.7363C166.754 53.7363 166.521 53.7063 166.301 53.6463C166.081 53.5863 165.881 53.4896 165.701 53.3563C165.527 53.2229 165.387 53.0563 165.281 52.8563C165.181 52.6563 165.131 52.4296 165.131 52.1763C165.131 51.8763 165.184 51.6263 165.291 51.4263C165.404 51.2196 165.554 51.0529 165.741 50.9263C165.927 50.7996 166.141 50.7129 166.381 50.6663C166.627 50.6129 166.887 50.5863 167.161 50.5863H168.711C168.711 50.1396 168.614 49.7863 168.421 49.5263C168.227 49.2596 167.901 49.1196 167.441 49.1063C167.161 49.1063 166.914 49.1529 166.701 49.2463C166.487 49.3396 166.341 49.4929 166.261 49.7063H165.351C165.397 49.4663 165.491 49.2629 165.631 49.0963C165.771 48.9229 165.937 48.7829 166.131 48.6763C166.324 48.5629 166.534 48.4796 166.761 48.4263C166.987 48.3729 167.214 48.3463 167.441 48.3463C167.834 48.3463 168.164 48.4129 168.431 48.5463C168.704 48.6729 168.924 48.8429 169.091 49.0563C169.257 49.2629 169.374 49.5163 169.441 49.8163C169.507 50.1163 169.541 50.4529 169.541 50.8263V53.6763H168.831L168.781 53.0063ZM167.781 51.2963C167.621 51.2963 167.434 51.2996 167.221 51.3063C167.014 51.3063 166.814 51.3263 166.621 51.3663C166.427 51.4063 166.271 51.4896 166.151 51.6163C166.037 51.7429 165.981 51.9096 165.981 52.1163C165.981 52.2696 166.011 52.3996 166.071 52.5063C166.131 52.6129 166.211 52.7029 166.311 52.7763C166.417 52.8496 166.537 52.9029 166.671 52.9363C166.804 52.9696 166.941 52.9863 167.081 52.9863C167.581 52.9863 167.974 52.8663 168.261 52.6263C168.554 52.3796 168.704 52.0229 168.711 51.5563V51.2963H167.781ZM174.258 52.9363V48.4063H175.118V52.9363H175.808V55.2963H174.978V53.6763H170.858V48.4063H171.708V52.9363H174.258ZM177.527 53.6763H176.697V48.4063H177.547V52.4463C177.594 52.3529 177.657 52.2529 177.737 52.1463C177.817 52.0329 177.881 51.9463 177.927 51.8863L180.477 48.4063H181.317V53.6763H180.467V49.6363C180.414 49.7363 180.354 49.8329 180.287 49.9263C180.227 50.0129 180.171 50.0896 180.117 50.1563L177.527 53.6763ZM185.044 47.0563C185.324 47.0563 185.548 47.0029 185.714 46.8963C185.888 46.7896 185.974 46.6029 185.974 46.3363H186.754C186.741 46.8163 186.581 47.1663 186.274 47.3863C185.974 47.6063 185.561 47.7163 185.034 47.7163C184.508 47.7163 184.094 47.6063 183.794 47.3863C183.501 47.1663 183.348 46.8163 183.334 46.3363H184.114C184.121 46.6029 184.208 46.7896 184.374 46.8963C184.541 47.0029 184.764 47.0563 185.044 47.0563ZM183.484 53.6763H182.654V48.4063H183.504V52.4463C183.551 52.3529 183.614 52.2529 183.694 52.1463C183.774 52.0329 183.838 51.9463 183.884 51.8863L186.434 48.4063H187.274V53.6763H186.424V49.6363C186.371 49.7363 186.311 49.8329 186.244 49.9263C186.184 50.0129 186.128 50.0896 186.074 50.1563L183.484 53.6763Z" fill="#7F878F"/>
<path d="M0 50.9542C0 53.3743 1.19417 54.9396 2.86158 55.6314C3.8725 56.0509 5.04206 56.3651 7.95274 56.3651C10.8495 56.3651 12.0196 56.0531 13.0219 55.6363C13.0659 55.618 13.116 55.6207 13.1573 55.6445L15.4426 56.9607C15.6367 57.0725 15.879 56.9324 15.879 56.7084V51.8525C15.4542 52.2774 14.3308 50.3043 11.2344 50.3043C8.138 50.3043 6.12666 51.8525 3.83743 51.8525C1.5482 51.8525 0.702696 50.2514 0 50.9542Z" fill="#888888" fill-opacity="0.1"/>
<path d="M0 51.4835C0 53.2888 1.19417 54.9396 2.86158 55.6315C3.8725 56.0509 5.04206 56.3651 7.95274 56.3651C10.8495 56.3651 12.0196 56.0531 13.0219 55.6364C13.0659 55.6181 13.116 55.6207 13.1573 55.6445L15.4426 56.9607C15.6367 57.0725 15.879 56.9324 15.879 56.7084V51.0587C15.4542 51.4835 14.3308 52.6069 11.2344 52.6069C8.138 52.6069 6.12666 49.8015 3.83743 49.8015C1.5482 49.8015 0.702696 50.7808 0 51.4835Z" fill="#888888" fill-opacity="0.2"/>
<path fill-rule="evenodd" clip-rule="evenodd" d="M12.8696 55.2695L12.8696 55.2695C13.0242 55.2052 13.2041 55.2131 13.3554 55.3002L15.482 56.525V47.8784C15.482 46.2594 14.4158 44.7517 12.9015 44.1113L13.0561 43.7457C14.7056 44.4432 15.879 46.0875 15.879 47.8784V56.7081C15.879 56.9321 15.6367 57.0722 15.4426 56.9604L13.1573 55.6442C13.116 55.6205 13.0659 55.6178 13.0219 55.6361C12.0196 56.0528 10.8495 56.3648 7.95274 56.3648C5.04206 56.3648 3.8725 56.0506 2.86158 55.6312C1.19417 54.9394 0 53.2887 0 51.4834V47.8784C0 46.076 1.19253 44.4571 2.85173 43.753C3.86488 43.3231 5.02345 43 7.95274 43C10.8736 43 12.046 43.3185 13.0561 43.7457L12.9015 44.1113C11.9549 43.711 10.8391 43.397 7.95274 43.397C5.05909 43.397 3.95692 43.7153 3.0068 44.1184C1.47713 44.7675 0.396976 46.2531 0.396976 47.8784V51.4834C0.396976 53.1146 1.48162 54.6288 3.01371 55.2645C3.96224 55.6581 5.07636 55.9679 7.95274 55.9679C10.8157 55.9679 11.9301 55.6601 12.8696 55.2695Z" fill="#7F878F"/>
<circle cx="5.02833" cy="49.9868" r="0.793951" fill="#7F878F"/>
<circle cx="7.93946" cy="49.9868" r="0.793951" fill="#7F878F"/>
<circle cx="10.8506" cy="49.1929" r="0.793951" fill="#7F878F"/>
<path d="M315 12.2422C315 13.4522 315.597 14.2349 316.431 14.5808C316.936 14.7905 317.521 14.9476 318.976 14.9476C320.425 14.9476 321.01 14.7916 321.511 14.5832C321.533 14.5741 321.558 14.5754 321.579 14.5873L322.721 15.2454C322.818 15.3013 322.94 15.2313 322.94 15.1193V12.6913C322.727 12.9038 322.165 11.9172 320.617 11.9172C319.069 11.9172 318.063 12.6913 316.919 12.6913C315.774 12.6913 315.351 11.8908 315 12.2422Z" fill="white" fill-opacity="0.1"/>
<path d="M315 12.5068C315 13.4095 315.597 14.2349 316.431 14.5808C316.936 14.7905 317.521 14.9476 318.976 14.9476C320.425 14.9476 321.01 14.7916 321.511 14.5833C321.533 14.5741 321.558 14.5754 321.579 14.5873L322.721 15.2454C322.818 15.3013 322.94 15.2313 322.94 15.1193V12.2944C322.727 12.5068 322.165 13.0685 320.617 13.0685C319.069 13.0685 318.063 11.6658 316.919 11.6658C315.774 11.6658 315.351 12.1555 315 12.5068Z" fill="white" fill-opacity="0.2"/>
<path fill-rule="evenodd" clip-rule="evenodd" d="M321.435 14.3998L321.435 14.3998C321.512 14.3677 321.602 14.3716 321.678 14.4152L322.741 15.0276V10.7043C322.741 9.89479 322.208 9.14093 321.451 8.82074L321.528 8.63793C322.353 8.98669 322.94 9.80884 322.94 10.7043V15.1191C322.94 15.2311 322.818 15.3012 322.721 15.2453L321.579 14.5872C321.558 14.5753 321.533 14.574 321.511 14.5831C321.01 14.7915 320.425 14.9475 318.976 14.9475C317.521 14.9475 316.936 14.7904 316.431 14.5807C315.597 14.2348 315 13.4094 315 12.5068V10.7043C315 9.80307 315.596 8.99361 316.426 8.64158C316.932 8.42662 317.512 8.26508 318.976 8.26508C320.437 8.26508 321.023 8.42432 321.528 8.63793L321.451 8.82074C320.977 8.62059 320.42 8.46356 318.976 8.46356C317.53 8.46356 316.978 8.62271 316.503 8.8243C315.739 9.14885 315.198 9.89164 315.198 10.7043V12.5068C315.198 13.3224 315.741 14.0795 316.507 14.3973C316.981 14.5941 317.538 14.749 318.976 14.749C320.408 14.749 320.965 14.5951 321.435 14.3998Z" fill="white"/>
<circle cx="317.514" cy="11.7585" r="0.396976" fill="white"/>
<circle cx="318.97" cy="11.7585" r="0.396976" fill="white"/>
<circle cx="320.425" cy="11.3616" r="0.396976" fill="white"/>
<defs>
<linearGradient id="paint0_linear_35_611" x1="220" y1="0.212341" x2="220" y2="40.2123" gradientUnits="userSpaceOnUse">
<stop stop-color="#4666B0"/>
<stop offset="1" stop-color="#335399"/>
</linearGradient>
</defs>
</svg>
