<svg width="440" height="57" viewBox="0 0 440 57" fill="none" xmlns="http://www.w3.org/2000/svg">
<rect y="0.212402" width="440" height="40" rx="12" fill="url(#paint0_linear_35_591)"/>
<path d="M143.064 25.3104C142.775 25.3104 142.411 25.2824 141.972 25.2264C141.543 25.1704 141.118 25.0444 140.698 24.8484C140.278 24.6431 139.909 24.3491 139.592 23.9664C139.284 23.5837 139.102 23.0704 139.046 22.4264H140.628C140.665 22.7531 140.782 23.0144 140.978 23.2104C141.183 23.3971 141.407 23.5371 141.65 23.6304C141.893 23.7237 142.149 23.7844 142.42 23.8124C142.691 23.8404 142.929 23.8544 143.134 23.8544C143.367 23.8544 143.61 23.8357 143.862 23.7984C144.123 23.7517 144.357 23.6724 144.562 23.5604C144.777 23.4484 144.954 23.2897 145.094 23.0844C145.234 22.8791 145.304 22.6131 145.304 22.2864C145.304 21.9411 145.229 21.6751 145.08 21.4884C144.931 21.2924 144.744 21.1524 144.52 21.0684C144.305 20.9751 144.067 20.9191 143.806 20.9004C143.554 20.8817 143.316 20.8724 143.092 20.8724H141.832V19.4864H142.952C143.176 19.4771 143.405 19.4491 143.638 19.4024C143.871 19.3557 144.081 19.2811 144.268 19.1784C144.455 19.0664 144.609 18.9217 144.73 18.7444C144.851 18.5577 144.921 18.3244 144.94 18.0444C144.94 17.7551 144.875 17.5217 144.744 17.3444C144.623 17.1577 144.464 17.0131 144.268 16.9104C144.081 16.8077 143.871 16.7377 143.638 16.7004C143.405 16.6631 143.176 16.6444 142.952 16.6444C142.7 16.6444 142.448 16.6724 142.196 16.7284C141.953 16.7751 141.734 16.8544 141.538 16.9664C141.342 17.0784 141.183 17.2184 141.062 17.3864C140.941 17.5544 140.875 17.7551 140.866 17.9884H139.284C139.284 17.5031 139.382 17.0877 139.578 16.7424C139.783 16.3877 140.054 16.0984 140.39 15.8744C140.735 15.6411 141.132 15.4731 141.58 15.3704C142.028 15.2584 142.499 15.2024 142.994 15.2024C143.433 15.2024 143.862 15.2444 144.282 15.3284C144.702 15.4031 145.075 15.5384 145.402 15.7344C145.738 15.9304 146.009 16.1964 146.214 16.5324C146.419 16.8591 146.522 17.2744 146.522 17.7784C146.522 17.9651 146.499 18.1611 146.452 18.3664C146.415 18.5624 146.345 18.7537 146.242 18.9404C146.149 19.1271 146.013 19.3091 145.836 19.4864C145.668 19.6544 145.458 19.8037 145.206 19.9344C145.766 20.0744 146.191 20.3591 146.48 20.7884C146.779 21.2084 146.928 21.7077 146.928 22.2864C146.928 22.8464 146.816 23.3224 146.592 23.7144C146.377 24.0971 146.088 24.4097 145.724 24.6524C145.369 24.8857 144.959 25.0537 144.492 25.1564C144.025 25.2591 143.549 25.3104 143.064 25.3104ZM153.198 15.3144L156.922 25.2124H155.144L154.416 23.2104H149.922L149.18 25.2124H147.416L151.168 15.3144H153.198ZM153.912 21.7544L152.176 16.9244L150.426 21.7544H153.912ZM166.182 25.2124H164.558V16.7704H159.77V25.2124H158.146V15.3144H166.182V25.2124ZM172.71 25.3104C171.935 25.3104 171.249 25.1844 170.652 24.9324C170.064 24.6711 169.569 24.3164 169.168 23.8684C168.767 23.4204 168.459 22.8884 168.244 22.2724C168.039 21.6564 167.936 20.9844 167.936 20.2564C167.936 19.5191 168.043 18.8424 168.258 18.2264C168.473 17.6011 168.781 17.0644 169.182 16.6164C169.593 16.1684 170.092 15.8184 170.68 15.5664C171.277 15.3144 171.959 15.1884 172.724 15.1884C173.489 15.1884 174.166 15.3144 174.754 15.5664C175.351 15.8091 175.851 16.1544 176.252 16.6024C176.663 17.0504 176.971 17.5871 177.176 18.2124C177.391 18.8284 177.498 19.5051 177.498 20.2424C177.498 20.9704 177.391 21.6471 177.176 22.2724C176.971 22.8884 176.663 23.4204 176.252 23.8684C175.851 24.3164 175.351 24.6711 174.754 24.9324C174.157 25.1844 173.475 25.3104 172.71 25.3104ZM172.724 16.6444C172.192 16.6444 171.73 16.7424 171.338 16.9384C170.955 17.1344 170.633 17.3957 170.372 17.7224C170.111 18.0491 169.915 18.4317 169.784 18.8704C169.663 19.3091 169.602 19.7664 169.602 20.2424C169.602 20.7184 169.663 21.1757 169.784 21.6144C169.915 22.0437 170.106 22.4264 170.358 22.7624C170.619 23.0984 170.946 23.3644 171.338 23.5604C171.73 23.7564 172.192 23.8544 172.724 23.8544C173.247 23.8544 173.704 23.7611 174.096 23.5744C174.488 23.3784 174.81 23.1171 175.062 22.7904C175.323 22.4637 175.515 22.0857 175.636 21.6564C175.767 21.2177 175.832 20.7511 175.832 20.2564C175.832 19.7711 175.767 19.3137 175.636 18.8844C175.515 18.4457 175.323 18.0631 175.062 17.7364C174.81 17.4004 174.488 17.1344 174.096 16.9384C173.713 16.7424 173.256 16.6444 172.724 16.6444ZM184.959 25.2124V16.7704H181.347C181.337 17.0597 181.333 17.3257 181.333 17.5684C181.333 17.8017 181.328 18.0771 181.319 18.3944C181.319 18.7117 181.314 19.0711 181.305 19.4724C181.295 19.8737 181.281 20.3404 181.263 20.8724C181.263 21.1244 181.253 21.3857 181.235 21.6564C181.225 21.9177 181.202 22.1791 181.165 22.4404C181.137 22.7017 181.095 22.9491 181.039 23.1824C180.992 23.4157 180.922 23.6257 180.829 23.8124C180.577 24.3257 180.236 24.6991 179.807 24.9324C179.377 25.1564 178.803 25.2684 178.085 25.2684V23.7844C178.439 23.7844 178.719 23.6817 178.925 23.4764C179.139 23.2711 179.298 23.0051 179.401 22.6784C179.513 22.3424 179.583 21.9644 179.611 21.5444C179.648 21.1151 179.676 20.6811 179.695 20.2424C179.704 19.6451 179.713 19.1177 179.723 18.6604C179.732 18.1937 179.741 17.7691 179.751 17.3864C179.76 17.0037 179.765 16.6491 179.765 16.3224C179.765 15.9864 179.769 15.6504 179.779 15.3144H186.583V25.2124H184.959ZM190.504 19.6124H195.25V15.3144H196.874V25.2124H195.25V21.0684H190.504V25.2124H188.88V15.3144H190.504V19.6124ZM199.175 25.2124V15.3144H200.799V22.5804L205.881 15.3144H207.337V25.2124H205.713V18.0164L200.631 25.2124H199.175ZM213.386 25.2124H211.762V16.7704H208.612V15.3144H216.522V16.7704H213.386V25.2124ZM217.782 15.3144H219.406V19.1364H221.59C222.104 19.1364 222.58 19.1831 223.018 19.2764C223.457 19.3697 223.835 19.5331 224.152 19.7664C224.479 19.9904 224.731 20.2891 224.908 20.6624C225.095 21.0357 225.193 21.5024 225.202 22.0624C225.202 22.6691 225.095 23.1731 224.88 23.5744C224.675 23.9757 224.395 24.2977 224.04 24.5404C223.686 24.7831 223.27 24.9557 222.794 25.0584C222.318 25.1611 221.81 25.2124 221.268 25.2124H217.782V15.3144ZM219.406 23.7704H221.198C221.488 23.7704 221.777 23.7517 222.066 23.7144C222.356 23.6771 222.612 23.6024 222.836 23.4904C223.06 23.3691 223.242 23.2011 223.382 22.9864C223.522 22.7717 223.592 22.4871 223.592 22.1324C223.592 21.7871 223.527 21.5117 223.396 21.3064C223.275 21.1011 223.107 20.9471 222.892 20.8444C222.687 20.7417 222.449 20.6764 222.178 20.6484C221.908 20.6111 221.628 20.5924 221.338 20.5924H219.406V23.7704ZM238.793 25.2124H237.169V16.7704H232.381V25.2124H230.757V15.3144H238.793V25.2124ZM241.093 25.2124V15.3144H244.719C245.289 15.3144 245.797 15.3797 246.245 15.5104C246.703 15.6317 247.09 15.8277 247.407 16.0984C247.725 16.3691 247.967 16.7191 248.135 17.1484C248.313 17.5684 248.401 18.0724 248.401 18.6604C248.401 19.2017 248.313 19.6871 248.135 20.1164C247.958 20.5457 247.706 20.9097 247.379 21.2084C247.053 21.4977 246.656 21.7217 246.189 21.8804C245.732 22.0391 245.219 22.1184 244.649 22.1184H242.703V25.2124H241.093ZM242.703 20.6764H244.565C244.873 20.6764 245.158 20.6391 245.419 20.5644C245.69 20.4897 245.923 20.3731 246.119 20.2144C246.315 20.0557 246.469 19.8551 246.581 19.6124C246.703 19.3697 246.768 19.0804 246.777 18.7444C246.777 18.0444 246.595 17.5404 246.231 17.2324C245.877 16.9244 245.354 16.7704 244.663 16.7704H242.703V20.6764ZM254.454 25.3104C253.679 25.3104 252.993 25.1844 252.396 24.9324C251.808 24.6711 251.313 24.3164 250.912 23.8684C250.511 23.4204 250.203 22.8884 249.988 22.2724C249.783 21.6564 249.68 20.9844 249.68 20.2564C249.68 19.5191 249.787 18.8424 250.002 18.2264C250.217 17.6011 250.525 17.0644 250.926 16.6164C251.337 16.1684 251.836 15.8184 252.424 15.5664C253.021 15.3144 253.703 15.1884 254.468 15.1884C255.233 15.1884 255.91 15.3144 256.498 15.5664C257.095 15.8091 257.595 16.1544 257.996 16.6024C258.407 17.0504 258.715 17.5871 258.92 18.2124C259.135 18.8284 259.242 19.5051 259.242 20.2424C259.242 20.9704 259.135 21.6471 258.92 22.2724C258.715 22.8884 258.407 23.4204 257.996 23.8684C257.595 24.3164 257.095 24.6711 256.498 24.9324C255.901 25.1844 255.219 25.3104 254.454 25.3104ZM254.468 16.6444C253.936 16.6444 253.474 16.7424 253.082 16.9384C252.699 17.1344 252.377 17.3957 252.116 17.7224C251.855 18.0491 251.659 18.4317 251.528 18.8704C251.407 19.3091 251.346 19.7664 251.346 20.2424C251.346 20.7184 251.407 21.1757 251.528 21.6144C251.659 22.0437 251.85 22.4264 252.102 22.7624C252.363 23.0984 252.69 23.3644 253.082 23.5604C253.474 23.7564 253.936 23.8544 254.468 23.8544C254.991 23.8544 255.448 23.7611 255.84 23.5744C256.232 23.3784 256.554 23.1171 256.806 22.7904C257.067 22.4637 257.259 22.0857 257.38 21.6564C257.511 21.2177 257.576 20.7511 257.576 20.2564C257.576 19.7711 257.511 19.3137 257.38 18.8844C257.259 18.4457 257.067 18.0631 256.806 17.7364C256.554 17.4004 256.232 17.1344 255.84 16.9384C255.457 16.7424 255 16.6444 254.468 16.6444ZM265.099 25.3944V23.8124H264.287C263.699 23.8124 263.172 23.7237 262.705 23.5464C262.248 23.3597 261.856 23.1031 261.529 22.7764C261.212 22.4404 260.969 22.0391 260.801 21.5724C260.633 21.1057 260.549 20.5831 260.549 20.0044C260.549 19.4071 260.638 18.8751 260.815 18.4084C261.002 17.9417 261.263 17.5497 261.599 17.2324C261.935 16.9057 262.337 16.6584 262.803 16.4904C263.27 16.3224 263.788 16.2384 264.357 16.2384H265.099V14.8104H266.723V16.2384H267.423C267.993 16.2384 268.511 16.3224 268.977 16.4904C269.444 16.6584 269.845 16.9011 270.181 17.2184C270.527 17.5357 270.793 17.9277 270.979 18.3944C271.166 18.8517 271.264 19.3744 271.273 19.9624C271.273 20.5504 271.185 21.0824 271.007 21.5584C270.839 22.0251 270.597 22.4264 270.279 22.7624C269.962 23.0984 269.57 23.3597 269.103 23.5464C268.646 23.7237 268.123 23.8124 267.535 23.8124H266.723V25.3944H265.099ZM264.399 17.5964C263.671 17.5964 263.116 17.8157 262.733 18.2544C262.351 18.6837 262.159 19.2437 262.159 19.9344C262.159 20.2984 262.201 20.6344 262.285 20.9424C262.379 21.2504 262.519 21.5164 262.705 21.7404C262.892 21.9644 263.125 22.1371 263.405 22.2584C263.685 22.3797 264.017 22.4404 264.399 22.4404H265.099V17.5964H264.399ZM266.723 22.4404H267.451C267.834 22.4404 268.165 22.3797 268.445 22.2584C268.725 22.1277 268.954 21.9551 269.131 21.7404C269.318 21.5257 269.453 21.2691 269.537 20.9704C269.621 20.6717 269.663 20.3451 269.663 19.9904C269.663 19.6451 269.612 19.3277 269.509 19.0384C269.407 18.7397 269.257 18.4831 269.061 18.2684C268.865 18.0537 268.627 17.8904 268.347 17.7784C268.067 17.6571 267.75 17.5964 267.395 17.5964H266.723V22.4404ZM273.017 25.2124V15.3144H274.641V22.5804L279.723 15.3144H281.179V25.2124H279.555V18.0164L274.473 25.2124H273.017ZM289.398 25.2124V16.7704H285.786C285.777 17.0597 285.772 17.3257 285.772 17.5684C285.772 17.8017 285.767 18.0771 285.758 18.3944C285.758 18.7117 285.753 19.0711 285.744 19.4724C285.735 19.8737 285.721 20.3404 285.702 20.8724C285.702 21.1244 285.693 21.3857 285.674 21.6564C285.665 21.9177 285.641 22.1791 285.604 22.4404C285.576 22.7017 285.534 22.9491 285.478 23.1824C285.431 23.4157 285.361 23.6257 285.268 23.8124C285.016 24.3257 284.675 24.6991 284.246 24.9324C283.817 25.1564 283.243 25.2684 282.524 25.2684V23.7844C282.879 23.7844 283.159 23.6817 283.364 23.4764C283.579 23.2711 283.737 23.0051 283.84 22.6784C283.952 22.3424 284.022 21.9644 284.05 21.5444C284.087 21.1151 284.115 20.6811 284.134 20.2424C284.143 19.6451 284.153 19.1177 284.162 18.6604C284.171 18.1937 284.181 17.7691 284.19 17.3864C284.199 17.0037 284.204 16.6491 284.204 16.3224C284.204 15.9864 284.209 15.6504 284.218 15.3144H291.022V25.2124H289.398ZM293.306 15.3144H294.93V19.1364H297.114C297.627 19.1364 298.103 19.1831 298.542 19.2764C298.981 19.3697 299.359 19.5331 299.676 19.7664C300.003 19.9904 300.255 20.2891 300.432 20.6624C300.619 21.0357 300.717 21.5024 300.726 22.0624C300.726 22.6691 300.619 23.1731 300.404 23.5744C300.199 23.9757 299.919 24.2977 299.564 24.5404C299.209 24.7831 298.794 24.9557 298.318 25.0584C297.842 25.1611 297.333 25.2124 296.792 25.2124H293.306V15.3144ZM294.93 23.7704H296.722C297.011 23.7704 297.301 23.7517 297.59 23.7144C297.879 23.6771 298.136 23.6024 298.36 23.4904C298.584 23.3691 298.766 23.2011 298.906 22.9864C299.046 22.7717 299.116 22.4871 299.116 22.1324C299.116 21.7871 299.051 21.5117 298.92 21.3064C298.799 21.1011 298.631 20.9471 298.416 20.8444C298.211 20.7417 297.973 20.6764 297.702 20.6484C297.431 20.6111 297.151 20.5924 296.862 20.5924H294.93V23.7704Z" fill="white"/>
<path d="M24.5677 55.6263V52.8863C24.8077 52.8863 24.9877 52.8429 25.1077 52.7563C25.2343 52.6629 25.331 52.5396 25.3977 52.3863C25.4777 52.1863 25.541 51.9263 25.5877 51.6063C25.641 51.2796 25.681 50.9463 25.7077 50.6063C25.7543 49.9396 25.7877 49.2729 25.8077 48.6063C25.8277 47.9396 25.841 47.2729 25.8477 46.6063H30.3677V52.8863H31.2177V55.6263H30.3477V53.6763H25.4377V55.6263H24.5677ZM29.4977 52.8863V47.3963H26.6977L26.6077 50.1463C26.601 50.3063 26.591 50.4963 26.5777 50.7163C26.571 50.9363 26.551 51.1696 26.5177 51.4163C26.491 51.6563 26.451 51.9029 26.3977 52.1563C26.3443 52.4096 26.271 52.6529 26.1777 52.8863H29.4977ZM32.7928 51.2063C32.8261 50.7263 32.8495 50.2596 32.8628 49.8063C32.8828 49.3529 32.8961 48.8863 32.9028 48.4063H36.5628V53.6763H35.7128V49.1563H33.7328L33.6428 51.2263C33.6295 51.4929 33.5995 51.7929 33.5528 52.1263C33.5061 52.4596 33.4095 52.7629 33.2628 53.0363C33.1495 53.2296 32.9961 53.3863 32.8028 53.5063C32.6095 53.6263 32.3861 53.6863 32.1328 53.6863H31.8228V52.9363C32.0895 52.9363 32.3028 52.8229 32.4628 52.5963C32.5561 52.4629 32.6295 52.2696 32.6828 52.0163C32.7361 51.7629 32.7728 51.4929 32.7928 51.2063ZM41.8985 53.6763H41.0485V51.7263H39.8385L38.5585 53.6763H37.5685L38.9385 51.5963C38.5585 51.4896 38.2618 51.3163 38.0485 51.0763C37.8352 50.8296 37.7218 50.5029 37.7085 50.0963C37.7018 49.7429 37.7552 49.4596 37.8685 49.2463C37.9885 49.0263 38.1452 48.8496 38.3385 48.7163C38.5252 48.5829 38.7418 48.4996 38.9885 48.4663C39.2352 48.4263 39.4985 48.4063 39.7785 48.4063H41.8985V53.6763ZM41.0485 49.1563L39.9185 49.1463C39.7518 49.1463 39.5818 49.1529 39.4085 49.1663C39.2418 49.1796 39.0918 49.2229 38.9585 49.2963C38.8452 49.3629 38.7518 49.4596 38.6785 49.5863C38.6118 49.7063 38.5752 49.8629 38.5685 50.0563C38.5752 50.2363 38.6185 50.3896 38.6985 50.5163C38.7785 50.6363 38.8918 50.7329 39.0385 50.8063C39.2318 50.8996 39.4452 50.9529 39.6785 50.9663C39.9185 50.9796 40.1652 50.9863 40.4185 50.9863H41.0485V49.1563ZM45.9356 48.4063H47.9756C48.3156 48.4063 48.6056 48.4296 48.8456 48.4763C49.0923 48.5229 49.299 48.6063 49.4656 48.7263C49.6123 48.8263 49.7256 48.9596 49.8056 49.1263C49.8923 49.2929 49.9356 49.4896 49.9356 49.7163C49.9356 50.2429 49.699 50.6196 49.2256 50.8463C49.5856 50.9263 49.8456 51.0829 50.0056 51.3163C50.1656 51.5496 50.2456 51.8163 50.2456 52.1163C50.239 52.3963 50.1923 52.6263 50.1056 52.8063C50.019 52.9796 49.8956 53.1329 49.7356 53.2663C49.5823 53.3929 49.3923 53.4929 49.1656 53.5663C48.939 53.6396 48.6823 53.6763 48.3956 53.6763H45.9356V48.4063ZM46.8056 49.1563V50.6563H47.5356C47.7023 50.6563 47.8723 50.6529 48.0456 50.6463C48.219 50.6329 48.3723 50.6029 48.5056 50.5563C48.6723 50.5029 48.8123 50.4163 48.9256 50.2963C49.039 50.1763 49.099 50.0329 49.1056 49.8663C49.1056 49.6729 49.0623 49.5329 48.9756 49.4463C48.8956 49.3529 48.7956 49.2863 48.6756 49.2463C48.5556 49.1996 48.4256 49.1729 48.2856 49.1663C48.1456 49.1596 48.0156 49.1563 47.8956 49.1563H46.8056ZM46.8056 52.9363H48.1956C48.349 52.9363 48.4956 52.9263 48.6356 52.9063C48.7823 52.8863 48.909 52.8496 49.0156 52.7963C49.1223 52.7363 49.209 52.6563 49.2756 52.5563C49.3423 52.4563 49.379 52.3296 49.3856 52.1763C49.3856 51.9763 49.339 51.8196 49.2456 51.7063C49.1523 51.5863 49.0256 51.4996 48.8656 51.4463C48.7323 51.4063 48.5823 51.3829 48.4156 51.3763C48.249 51.3696 48.0756 51.3663 47.8956 51.3663L46.8056 51.3763V52.9363ZM53.6544 53.7363C53.2344 53.7363 52.871 53.6696 52.5644 53.5363C52.2577 53.4029 52.0044 53.2163 51.8044 52.9763C51.6044 52.7363 51.4544 52.4529 51.3544 52.1263C51.2544 51.7996 51.2044 51.4429 51.2044 51.0563C51.2044 50.6829 51.2577 50.3329 51.3644 50.0063C51.471 49.6729 51.6277 49.3863 51.8344 49.1463C52.041 48.8996 52.301 48.7063 52.6144 48.5663C52.9277 48.4196 53.3077 48.3463 53.7544 48.3463C54.021 48.3463 54.2577 48.3763 54.4644 48.4363C54.671 48.4896 54.8644 48.5796 55.0444 48.7063C55.231 48.8263 55.391 48.9863 55.5244 49.1863C55.6577 49.3863 55.7544 49.6296 55.8144 49.9163H54.9444C54.8444 49.6229 54.6844 49.4129 54.4644 49.2863C54.251 49.1596 53.9977 49.0996 53.7044 49.1063C53.4177 49.1063 53.1644 49.1629 52.9444 49.2763C52.731 49.3829 52.5577 49.5263 52.4244 49.7063C52.2977 49.8863 52.2044 50.0963 52.1444 50.3363C52.0844 50.5696 52.0544 50.8096 52.0544 51.0563C52.0544 51.3163 52.0844 51.5629 52.1444 51.7963C52.211 52.0296 52.3077 52.2363 52.4344 52.4163C52.5677 52.5896 52.7377 52.7296 52.9444 52.8363C53.151 52.9363 53.3977 52.9863 53.6844 52.9863C53.8244 52.9863 53.961 52.9729 54.0944 52.9463C54.2344 52.9196 54.361 52.8763 54.4744 52.8163C54.5944 52.7496 54.6977 52.6629 54.7844 52.5563C54.871 52.4496 54.9344 52.3196 54.9744 52.1663H55.8544C55.801 52.4396 55.7044 52.6763 55.5644 52.8763C55.431 53.0696 55.2644 53.2329 55.0644 53.3663C54.8644 53.4929 54.6444 53.5863 54.4044 53.6463C54.1644 53.7063 53.9144 53.7363 53.6544 53.7363ZM57.5917 51.3563C57.6117 51.5896 57.6584 51.8063 57.7317 52.0063C57.8117 52.1996 57.9184 52.3696 58.0517 52.5163C58.1851 52.6629 58.3484 52.7796 58.5417 52.8663C58.7417 52.9463 58.9717 52.9863 59.2317 52.9863C59.3584 52.9863 59.4884 52.9763 59.6217 52.9563C59.7617 52.9296 59.8917 52.8896 60.0117 52.8363C60.1317 52.7763 60.2384 52.6996 60.3317 52.6063C60.4251 52.5129 60.4951 52.3996 60.5417 52.2663H61.4117C61.3517 52.5196 61.2484 52.7396 61.1017 52.9263C60.9617 53.1129 60.7917 53.2663 60.5917 53.3863C60.3984 53.5063 60.1817 53.5963 59.9417 53.6563C59.7017 53.7096 59.4584 53.7363 59.2117 53.7363C58.7917 53.7363 58.4251 53.6696 58.1117 53.5363C57.8051 53.4029 57.5484 53.2196 57.3417 52.9863C57.1351 52.7463 56.9817 52.4629 56.8817 52.1363C56.7817 51.8029 56.7317 51.4396 56.7317 51.0463C56.7317 50.6529 56.7851 50.2929 56.8917 49.9663C57.0051 49.6329 57.1651 49.3463 57.3717 49.1063C57.5784 48.8663 57.8317 48.6796 58.1317 48.5463C58.4317 48.4129 58.7884 48.3463 59.2017 48.3463C59.6217 48.3463 59.9851 48.4296 60.2917 48.5963C60.5984 48.7629 60.8451 48.9829 61.0317 49.2563C61.2184 49.5229 61.3484 49.8129 61.4217 50.1263C61.5017 50.4396 61.5351 50.7296 61.5217 50.9963C61.5217 51.0563 61.5184 51.1163 61.5117 51.1763C61.5117 51.2363 61.5084 51.2963 61.5017 51.3563H57.5917ZM60.6617 50.6163C60.6484 50.1696 60.5084 49.8063 60.2417 49.5263C59.9751 49.2463 59.6184 49.1063 59.1717 49.1063C58.9251 49.1063 58.7084 49.1463 58.5217 49.2263C58.3351 49.3063 58.1784 49.4163 58.0517 49.5563C57.9251 49.6963 57.8251 49.8596 57.7517 50.0463C57.6784 50.2263 57.6317 50.4163 57.6117 50.6163H60.6617ZM64.4365 51.6663L62.9965 53.6763H62.0365L63.9165 50.9863L62.1265 48.4063H63.1465L64.4865 50.4063L65.7865 48.4063H66.7765L64.9965 51.0163L66.9065 53.6763H65.8965L64.4365 51.6663ZM73.1183 53.6763V51.4063H72.2383L70.8683 53.6763H69.8783L71.5883 50.9163L70.0283 48.4063H70.9383L72.3283 50.6863H73.1183V48.4063H73.9683V50.6863H74.7583L76.1483 48.4063H77.0583L75.4983 50.9163L77.2083 53.6763H76.2183L74.8483 51.4063H73.9683V53.6763H73.1183ZM78.578 51.3563C78.598 51.5896 78.6447 51.8063 78.718 52.0063C78.798 52.1996 78.9047 52.3696 79.038 52.5163C79.1714 52.6629 79.3347 52.7796 79.528 52.8663C79.728 52.9463 79.958 52.9863 80.218 52.9863C80.3447 52.9863 80.4747 52.9763 80.608 52.9563C80.748 52.9296 80.878 52.8896 80.998 52.8363C81.118 52.7763 81.2247 52.6996 81.318 52.6063C81.4114 52.5129 81.4814 52.3996 81.528 52.2663H82.398C82.338 52.5196 82.2347 52.7396 82.088 52.9263C81.948 53.1129 81.778 53.2663 81.578 53.3863C81.3847 53.5063 81.168 53.5963 80.928 53.6563C80.688 53.7096 80.4447 53.7363 80.198 53.7363C79.778 53.7363 79.4114 53.6696 79.098 53.5363C78.7914 53.4029 78.5347 53.2196 78.328 52.9863C78.1214 52.7463 77.968 52.4629 77.868 52.1363C77.768 51.8029 77.718 51.4396 77.718 51.0463C77.718 50.6529 77.7714 50.2929 77.878 49.9663C77.9914 49.6329 78.1514 49.3463 78.358 49.1063C78.5647 48.8663 78.818 48.6796 79.118 48.5463C79.418 48.4129 79.7747 48.3463 80.188 48.3463C80.608 48.3463 80.9714 48.4296 81.278 48.5963C81.5847 48.7629 81.8314 48.9829 82.018 49.2563C82.2047 49.5229 82.3347 49.8129 82.408 50.1263C82.488 50.4396 82.5214 50.7296 82.508 50.9963C82.508 51.0563 82.5047 51.1163 82.498 51.1763C82.498 51.2363 82.4947 51.2963 82.488 51.3563H78.578ZM81.648 50.6163C81.6347 50.1696 81.4947 49.8063 81.228 49.5263C80.9614 49.2463 80.6047 49.1063 80.158 49.1063C79.9114 49.1063 79.6947 49.1463 79.508 49.2263C79.3214 49.3063 79.1647 49.4163 79.038 49.5563C78.9114 49.6963 78.8114 49.8596 78.738 50.0463C78.6647 50.2263 78.618 50.4163 78.598 50.6163H81.648ZM84.0916 51.2063C84.125 50.7263 84.1483 50.2596 84.1616 49.8063C84.1816 49.3529 84.195 48.8863 84.2016 48.4063H87.8616V53.6763H87.0116V49.1563H85.0316L84.9416 51.2263C84.9283 51.4929 84.8983 51.7929 84.8516 52.1263C84.805 52.4596 84.7083 52.7629 84.5616 53.0363C84.4483 53.2296 84.295 53.3863 84.1016 53.5063C83.9083 53.6263 83.685 53.6863 83.4316 53.6863H83.1216V52.9363C83.3883 52.9363 83.6016 52.8229 83.7616 52.5963C83.855 52.4629 83.9283 52.2696 83.9816 52.0163C84.035 51.7629 84.0716 51.4929 84.0916 51.2063ZM92.6673 53.0063C92.554 53.1596 92.424 53.2829 92.2773 53.3763C92.1307 53.4696 91.9773 53.5429 91.8173 53.5963C91.664 53.6496 91.5073 53.6863 91.3473 53.7063C91.194 53.7263 91.0407 53.7363 90.8873 53.7363C90.6407 53.7363 90.4073 53.7063 90.1873 53.6463C89.9673 53.5863 89.7673 53.4896 89.5873 53.3563C89.414 53.2229 89.274 53.0563 89.1673 52.8563C89.0673 52.6563 89.0173 52.4296 89.0173 52.1763C89.0173 51.8763 89.0707 51.6263 89.1773 51.4263C89.2907 51.2196 89.4407 51.0529 89.6273 50.9263C89.814 50.7996 90.0273 50.7129 90.2673 50.6663C90.514 50.6129 90.774 50.5863 91.0473 50.5863H92.5973C92.5973 50.1396 92.5007 49.7863 92.3073 49.5263C92.114 49.2596 91.7873 49.1196 91.3273 49.1063C91.0473 49.1063 90.8007 49.1529 90.5873 49.2463C90.374 49.3396 90.2273 49.4929 90.1473 49.7063H89.2373C89.284 49.4663 89.3773 49.2629 89.5173 49.0963C89.6573 48.9229 89.824 48.7829 90.0173 48.6763C90.2107 48.5629 90.4207 48.4796 90.6473 48.4263C90.874 48.3729 91.1007 48.3463 91.3273 48.3463C91.7207 48.3463 92.0507 48.4129 92.3173 48.5463C92.5907 48.6729 92.8107 48.8429 92.9773 49.0563C93.144 49.2629 93.2607 49.5163 93.3273 49.8163C93.394 50.1163 93.4273 50.4529 93.4273 50.8263V53.6763H92.7173L92.6673 53.0063ZM91.6673 51.2963C91.5073 51.2963 91.3207 51.2996 91.1073 51.3063C90.9007 51.3063 90.7007 51.3263 90.5073 51.3663C90.314 51.4063 90.1573 51.4896 90.0373 51.6163C89.924 51.7429 89.8673 51.9096 89.8673 52.1163C89.8673 52.2696 89.8973 52.3996 89.9573 52.5063C90.0173 52.6129 90.0973 52.7029 90.1973 52.7763C90.304 52.8496 90.424 52.9029 90.5573 52.9363C90.6907 52.9696 90.8273 52.9863 90.9673 52.9863C91.4673 52.9863 91.8607 52.8663 92.1473 52.6263C92.4407 52.3796 92.5907 52.0229 92.5973 51.5563V51.2963H91.6673ZM99.0142 48.3463C99.4342 48.3463 99.7976 48.4129 100.104 48.5463C100.418 48.6796 100.674 48.8663 100.874 49.1063C101.081 49.3463 101.234 49.6329 101.334 49.9663C101.441 50.2929 101.494 50.6529 101.494 51.0463C101.494 51.4396 101.441 51.8029 101.334 52.1363C101.234 52.4629 101.081 52.7463 100.874 52.9863C100.674 53.2196 100.418 53.4029 100.104 53.5363C99.7976 53.6696 99.4342 53.7363 99.0142 53.7363C98.6276 53.7363 98.2876 53.6796 97.9942 53.5663C97.7076 53.4529 97.4642 53.2963 97.2642 53.0963C97.0642 52.8896 96.9076 52.6463 96.7942 52.3663C96.6876 52.0796 96.6209 51.7629 96.5942 51.4163H95.5942V53.6763H94.7442V48.4063H95.5942V50.6763H96.5942C96.6209 50.3296 96.6876 50.0163 96.7942 49.7363C96.9076 49.4496 97.0642 49.2029 97.2642 48.9963C97.4642 48.7896 97.7076 48.6296 97.9942 48.5163C98.2876 48.4029 98.6276 48.3463 99.0142 48.3463ZM99.0142 52.9863C99.3009 52.9863 99.5476 52.9363 99.7542 52.8363C99.9609 52.7363 100.128 52.5996 100.254 52.4263C100.388 52.2463 100.484 52.0396 100.544 51.8063C100.611 51.5729 100.644 51.3196 100.644 51.0463C100.644 50.7796 100.611 50.5296 100.544 50.2963C100.484 50.0563 100.388 49.8496 100.254 49.6763C100.128 49.4963 99.9609 49.3563 99.7542 49.2563C99.5476 49.1563 99.3009 49.1063 99.0142 49.1063C98.7276 49.1063 98.4809 49.1563 98.2742 49.2563C98.0742 49.3563 97.9109 49.4963 97.7842 49.6763C97.6576 49.8496 97.5642 50.0563 97.5042 50.2963C97.4442 50.5296 97.4142 50.7796 97.4142 51.0463C97.4142 51.3196 97.4442 51.5729 97.5042 51.8063C97.5642 52.0396 97.6576 52.2463 97.7842 52.4263C97.9109 52.5996 98.0742 52.7363 98.2742 52.8363C98.4809 52.9363 98.7276 52.9863 99.0142 52.9863ZM102.596 48.4063H103.446V52.9363H105.426V48.4063H106.276V52.9363H108.276V48.4063H109.126V52.9363H109.816V55.2963H108.996V53.6763H102.596V48.4063ZM111.531 53.6763H110.701V48.4063H111.551V52.4463C111.598 52.3529 111.661 52.2529 111.741 52.1463C111.821 52.0329 111.885 51.9463 111.931 51.8863L114.481 48.4063H115.321V53.6763H114.471V49.6363C114.418 49.7363 114.358 49.8329 114.291 49.9263C114.231 50.0129 114.175 50.0896 114.121 50.1563L111.531 53.6763ZM118.528 51.6663L117.088 53.6763H116.128L118.008 50.9863L116.218 48.4063H117.238L118.578 50.4063L119.878 48.4063H120.868L119.088 51.0163L120.998 53.6763H119.988L118.528 51.6663Z" fill="#7F878F"/>
<path d="M0 50.9542C0 53.3743 1.19417 54.9396 2.86158 55.6314C3.8725 56.0509 5.04206 56.3651 7.95274 56.3651C10.8495 56.3651 12.0196 56.0531 13.0219 55.6363C13.0659 55.618 13.116 55.6207 13.1573 55.6445L15.4426 56.9607C15.6367 57.0725 15.879 56.9324 15.879 56.7084V51.8525C15.4542 52.2774 14.3308 50.3043 11.2344 50.3043C8.138 50.3043 6.12666 51.8525 3.83743 51.8525C1.5482 51.8525 0.702696 50.2514 0 50.9542Z" fill="#888888" fill-opacity="0.1"/>
<path d="M0 51.4835C0 53.2888 1.19417 54.9396 2.86158 55.6315C3.8725 56.0509 5.04206 56.3651 7.95274 56.3651C10.8495 56.3651 12.0196 56.0531 13.0219 55.6364C13.0659 55.6181 13.116 55.6207 13.1573 55.6445L15.4426 56.9607C15.6367 57.0725 15.879 56.9324 15.879 56.7084V51.0587C15.4542 51.4835 14.3308 52.6069 11.2344 52.6069C8.138 52.6069 6.12666 49.8015 3.83743 49.8015C1.5482 49.8015 0.702696 50.7808 0 51.4835Z" fill="#888888" fill-opacity="0.2"/>
<path fill-rule="evenodd" clip-rule="evenodd" d="M12.8696 55.2695L12.8696 55.2695C13.0242 55.2052 13.2041 55.2131 13.3554 55.3002L15.482 56.525V47.8784C15.482 46.2594 14.4158 44.7517 12.9015 44.1113L13.0561 43.7457C14.7056 44.4432 15.879 46.0875 15.879 47.8784V56.7081C15.879 56.9321 15.6367 57.0722 15.4426 56.9604L13.1573 55.6442C13.116 55.6205 13.0659 55.6178 13.0219 55.6361C12.0196 56.0528 10.8495 56.3648 7.95274 56.3648C5.04206 56.3648 3.8725 56.0506 2.86158 55.6312C1.19417 54.9394 0 53.2887 0 51.4834V47.8784C0 46.076 1.19253 44.4571 2.85173 43.753C3.86488 43.3231 5.02345 43 7.95274 43C10.8736 43 12.046 43.3185 13.0561 43.7457L12.9015 44.1113C11.9549 43.711 10.8391 43.397 7.95274 43.397C5.05909 43.397 3.95692 43.7153 3.0068 44.1184C1.47713 44.7675 0.396976 46.2531 0.396976 47.8784V51.4834C0.396976 53.1146 1.48162 54.6288 3.01371 55.2645C3.96224 55.6581 5.07636 55.9679 7.95274 55.9679C10.8157 55.9679 11.9301 55.6601 12.8696 55.2695Z" fill="#7F878F"/>
<circle cx="5.02833" cy="49.9868" r="0.793951" fill="#7F878F"/>
<circle cx="7.93946" cy="49.9868" r="0.793951" fill="#7F878F"/>
<circle cx="10.8506" cy="49.1929" r="0.793951" fill="#7F878F"/>
<path d="M301 12.2422C301 13.4523 301.597 14.2349 302.431 14.5809C302.936 14.7906 303.521 14.9477 304.976 14.9477C306.425 14.9477 307.01 14.7917 307.511 14.5833C307.533 14.5742 307.558 14.5755 307.579 14.5874L308.721 15.2455C308.818 15.3014 308.94 15.2313 308.94 15.1193V12.6914C308.727 12.9038 308.165 11.9173 306.617 11.9173C305.069 11.9173 304.063 12.6914 302.919 12.6914C301.774 12.6914 301.351 11.8909 301 12.2422Z" fill="white" fill-opacity="0.1"/>
<path d="M301 12.5069C301 13.4095 301.597 14.2349 302.431 14.5809C302.936 14.7906 303.521 14.9477 304.976 14.9477C306.425 14.9477 307.01 14.7917 307.511 14.5833C307.533 14.5742 307.558 14.5755 307.579 14.5874L308.721 15.2455C308.818 15.3014 308.94 15.2313 308.94 15.1194V12.2945C308.727 12.5069 308.165 13.0686 306.617 13.0686C305.069 13.0686 304.063 11.6659 302.919 11.6659C301.774 11.6659 301.351 12.1555 301 12.5069Z" fill="white" fill-opacity="0.2"/>
<path fill-rule="evenodd" clip-rule="evenodd" d="M307.435 14.3999L307.435 14.3999C307.512 14.3678 307.602 14.3717 307.678 14.4153L308.741 15.0276V10.7043C308.741 9.89485 308.208 9.14099 307.451 8.8208L307.528 8.63799C308.353 8.98675 308.94 9.80891 308.94 10.7043V15.1192C308.94 15.2312 308.818 15.3012 308.721 15.2453L307.579 14.5873C307.558 14.5754 307.533 14.574 307.511 14.5832C307.01 14.7915 306.425 14.9476 304.976 14.9476C303.521 14.9476 302.936 14.7905 302.431 14.5807C301.597 14.2348 301 13.4095 301 12.5068V10.7043C301 9.80313 301.596 8.99367 302.426 8.64164C302.932 8.42668 303.512 8.26514 304.976 8.26514C306.437 8.26514 307.023 8.42439 307.528 8.63799L307.451 8.8208C306.977 8.62065 306.42 8.46362 304.976 8.46362C303.53 8.46362 302.978 8.62277 302.503 8.82436C301.739 9.14891 301.198 9.8917 301.198 10.7043V12.5068C301.198 13.3225 301.741 14.0796 302.507 14.3974C302.981 14.5942 303.538 14.7491 304.976 14.7491C306.408 14.7491 306.965 14.5952 307.435 14.3999Z" fill="white"/>
<circle cx="303.514" cy="11.7586" r="0.396976" fill="white"/>
<circle cx="304.97" cy="11.7586" r="0.396976" fill="white"/>
<circle cx="306.425" cy="11.3616" r="0.396976" fill="white"/>
<defs>
<linearGradient id="paint0_linear_35_591" x1="220" y1="0.212402" x2="220" y2="40.2124" gradientUnits="userSpaceOnUse">
<stop stop-color="#4666B0"/>
<stop offset="1" stop-color="#335399"/>
</linearGradient>
</defs>
</svg>
