<svg width="16" height="14" viewBox="0 0 16 14" fill="none" xmlns="http://www.w3.org/2000/svg">
<path d="M0 7.95429C0 10.3744 1.19417 11.9397 2.86158 12.6316C3.8725 13.051 5.04206 13.3652 7.95274 13.3652C10.8495 13.3652 12.0196 13.0532 13.0219 12.6365C13.0659 12.6182 13.116 12.6208 13.1573 12.6446L15.4426 13.9608C15.6367 14.0726 15.879 13.9325 15.879 13.7085V8.85265C15.4542 9.27748 14.3308 7.30444 11.2344 7.30444C8.138 7.30444 6.12666 8.85265 3.83743 8.85265C1.5482 8.85265 0.702696 7.25156 0 7.95429Z" fill="white" fill-opacity="0.1"/>
<path d="M0 8.48349C0 10.2888 1.19417 11.9396 2.86158 12.6315C3.8725 13.0509 5.04206 13.3651 7.95274 13.3651C10.8495 13.3651 12.0196 13.0531 13.0219 12.6364C13.0659 12.6181 13.116 12.6207 13.1573 12.6445L15.4426 13.9607C15.6367 14.0725 15.879 13.9324 15.879 13.7084V8.05866C15.4542 8.48349 14.3308 9.60694 11.2344 9.60694C8.138 9.60694 6.12666 6.80151 3.83743 6.80151C1.5482 6.80151 0.702696 7.78077 0 8.48349Z" fill="white" fill-opacity="0.2"/>
<path fill-rule="evenodd" clip-rule="evenodd" d="M12.8696 12.2695L12.8696 12.2695C13.0242 12.2052 13.2041 12.2131 13.3554 12.3002L15.482 13.525V4.87839C15.482 3.25943 14.4158 1.75171 12.9015 1.11133L13.0561 0.7457C14.7056 1.44323 15.879 3.08754 15.879 4.87839V13.7081C15.879 13.9321 15.6367 14.0722 15.4426 13.9604L13.1573 12.6442C13.116 12.6205 13.0659 12.6178 13.0219 12.6361C12.0196 13.0528 10.8495 13.3648 7.95274 13.3648C5.04206 13.3648 3.8725 13.0506 2.86158 12.6312C1.19417 11.9394 0 10.2887 0 8.48342V4.87839C0 3.076 1.19253 1.45707 2.85173 0.753011C3.86488 0.32309 5.02345 0 7.95274 0C10.8736 0 12.046 0.318498 13.0561 0.7457L12.9015 1.11133C11.9549 0.711024 10.8391 0.396976 7.95274 0.396976C5.05909 0.396976 3.95692 0.715274 3.0068 1.11845C1.47713 1.76754 0.396976 3.25313 0.396976 4.87839V8.48342C0.396976 10.1146 1.48162 11.6288 3.01371 12.2645C3.96224 12.6581 5.07636 12.9679 7.95274 12.9679C10.8157 12.9679 11.9301 12.6601 12.8696 12.2695Z" fill="white"/>
<circle cx="5.02833" cy="6.98682" r="0.793951" fill="white"/>
<circle cx="7.93946" cy="6.98682" r="0.793951" fill="white"/>
<circle cx="10.8506" cy="6.19288" r="0.793951" fill="white"/>
</svg>
